<?xml version="1.0" encoding="utf-8"?>
<!-- Generator: Adobe Illustrator 25.3.1, SVG Export Plug-In . SVG Version: 6.00 Build 0)  -->
<svg version="1.1" id="entity-viewer" xmlns="http://www.w3.org/2000/svg" xmlns:xlink="http://www.w3.org/1999/xlink" x="0px"
	 y="0px" viewBox="0 0 126 28" style="enable-background:new 0 0 126 28;" xml:space="preserve">
<style type="text/css">
	.st0{fill:#6F8190;}
	.st1{fill:#FFFFFF;}
	.st2{fill:#1B2C39;}
</style>
<g>
	<rect class="st0" width="28" height="28"/>
	<g>
		<path class="st1" d="M9.8,17.5c-0.7-0.8556-1.1667-1.8667-1.2444-3.0333H6.6889c0.0778,1.6333,0.7778,3.1111,1.7889,4.3556
			L9.8,17.5z"/>
		<path class="st1" d="M14.4667,6.6889v1.8667c2.5667,0.2333,4.6667,2.3333,4.9,4.9h1.8667C21,9.8778,18.1222,6.9222,14.4667,6.6889
			z"/>
		<path class="st1" d="M14,19.4444c-1.2444,0-2.4889-0.4667-3.5-1.2444l-1.3222,1.2444C10.5,20.6111,12.2111,21.3111,14,21.3111
			c3.8889,0,7.0778-3.0333,7.3111-6.8444h-1.8667C19.1333,17.2667,16.8,19.4444,14,19.4444z"/>
		<path class="st1" d="M13.5333,8.5556V3.8889c-3.2667,0.1556-6.2222,1.8667-8.0111,4.6667l4.1222,2.3333
			C10.4222,9.5667,11.9,8.7111,13.5333,8.5556z"/>
		<path class="st1" d="M14,22.2444c-2.0222,0-3.9667-0.7778-5.4444-2.1l-1.3222,1.3222c1.8667,1.7111,4.2778,2.6444,6.8444,2.6444
			c5.4444,0,9.8778-4.2778,10.1111-9.6444h-1.8667C21.9333,18.8222,18.3556,22.2444,14,22.2444z"/>
		<path class="st1" d="M4.9778,9.3333c-0.6222,1.2444-1.0111,2.7222-1.1667,4.2h4.6667c0.0778-0.6222,0.2333-1.2444,0.4667-1.8667
			L4.9778,9.3333z"/>
	</g>
</g>
<g>
	<path class="st2" d="M43.092,13.0777h-3.597v3.336h4.0084v1.0024h-5.2026V8.1639h4.9963v1.0018H39.495v2.9241h3.5969
		L43.092,13.0777L43.092,13.0777z"/>
	<path class="st2" d="M45.0131,12.5704c0-0.6868-0.0134-1.2499-0.0547-1.7985h1.0704l0.0691,1.0983h0.0268
		c0.33-0.6311,1.0983-1.2488,2.1965-1.2488c0.9199,0,2.3481,0.5486,2.3481,2.8276v3.9671h-1.2086v-3.83
		c0-1.0704-0.3981-1.9635-1.5376-1.9635c-0.7961,0-1.4138,0.5631-1.6201,1.2354c-0.0547,0.1516-0.0815,0.3578-0.0815,0.5631v3.995
		h-1.2086v-4.8457H45.0131z"/>
	<path class="st2" d="M54.0323,8.8641v1.9078h1.7294v0.9199h-1.7294v3.5825c0,0.824,0.2331,1.2911,0.9054,1.2911
		c0.3166,0,0.5496-0.0412,0.7002-0.0825l0.0557,0.9054c-0.2341,0.0969-0.6043,0.165-1.0714,0.165
		c-0.563,0-1.0158-0.1784-1.3045-0.5074c-0.3424-0.3568-0.4661-0.9477-0.4661-1.7304v-3.6237h-1.0302v-0.9199h1.0302V9.1797
		L54.0323,8.8641z"/>
	<path class="st2" d="M58.4666,8.9049c0.0134,0.412-0.2887,0.7415-0.7693,0.7415c-0.4249,0-0.727-0.3295-0.727-0.7415
		c0-0.4254,0.3156-0.7549,0.7549-0.7549C58.1778,8.15,58.4666,8.4795,58.4666,8.9049z M57.1208,17.4161v-6.6442h1.2086v6.6442
		H57.1208z"/>
	<path class="st2" d="M61.7882,8.8641v1.9078h1.7304v0.9199h-1.7304v3.5825c0,0.824,0.2341,1.2911,0.9064,1.2911
		c0.3156,0,0.5486-0.0412,0.7002-0.0825l0.0547,0.9054c-0.2331,0.0969-0.6043,0.165-1.0704,0.165
		c-0.5631,0-1.0158-0.1784-1.3045-0.5074c-0.3434-0.3568-0.4671-0.9477-0.4671-1.7304v-3.6237h-1.0292v-0.9199h1.0292V9.1797
		L61.7882,8.8641z"/>
	<path class="st2" d="M65.4398,10.7719l1.4551,3.9259c0.1506,0.4393,0.3156,0.9611,0.4249,1.3592h0.0278
		c0.1237-0.3981,0.2609-0.9054,0.4259-1.386l1.3179-3.8991h1.2767l-1.8119,4.7364c-0.8652,2.278-1.4561,3.4453-2.279,4.159
		c-0.5909,0.5218-1.1808,0.7281-1.4829,0.7827l-0.3021-1.0158c0.3021-0.0959,0.7002-0.2887,1.057-0.5899
		c0.33-0.2609,0.7414-0.728,1.0158-1.3458c0.0546-0.1237,0.0959-0.2197,0.0959-0.2877c0-0.0691-0.0268-0.165-0.0815-0.3166
		l-2.4574-6.1224h1.3178V10.7719z"/>
	<path class="st2" d="M74.8425,10.7719l1.3045,3.7341c0.2197,0.6043,0.398,1.1529,0.5352,1.7026h0.0413
		c0.1516-0.5496,0.3434-1.0983,0.563-1.7026l1.2901-3.7341h1.2633l-2.608,6.6442H76.079l-2.5265-6.6442H74.8425z"/>
	<path class="st2" d="M82.3241,8.9049c0.0144,0.412-0.2877,0.7415-0.7683,0.7415c-0.4259,0-0.7281-0.3295-0.7281-0.7415
		c0-0.4254,0.3166-0.7549,0.7559-0.7549C82.0364,8.15,82.3241,8.4795,82.3241,8.9049z M80.9794,17.4161v-6.6442h1.2076v6.6442
		H80.9794z"/>
	<path class="st2" d="M84.864,14.3142c0.0278,1.6335,1.0704,2.3058,2.279,2.3058c0.8652,0,1.387-0.1506,1.8397-0.3434l0.2062,0.8652
		c-0.4259,0.1918-1.1539,0.4115-2.211,0.4115c-2.0449,0-3.2669-1.3447-3.2669-3.3494s1.1808-3.5825,3.1164-3.5825
		c2.1687,0,2.7451,1.9078,2.7451,3.1298c0,0.2465-0.0268,0.4393-0.0412,0.5631H84.864V14.3142z M88.4063,13.449
		c0.0134-0.7693-0.3156-1.9635-1.6747-1.9635c-1.222,0-1.7572,1.1261-1.8542,1.9635H88.4063z"/>
	<path class="st2" d="M91.5495,10.7719l0.8786,3.3773c0.1918,0.7415,0.3702,1.4272,0.494,2.114h0.0412
		c0.1506-0.6724,0.3702-1.387,0.5899-2.1006l1.0849-3.3907h1.0158l1.0302,3.3226c0.2465,0.7961,0.4393,1.4963,0.5899,2.1687h0.0412
		c0.1093-0.6724,0.2887-1.3726,0.5084-2.1553l0.9467-3.336h1.1942l-2.1408,6.6442h-1.0983l-1.0168-3.171
		c-0.2331-0.7415-0.4249-1.4004-0.5899-2.1831h-0.0278c-0.164,0.7961-0.3702,1.4829-0.6033,2.1965l-1.0714,3.1576h-1.0983
		l-2.0037-6.6442C90.3142,10.7719,91.5495,10.7719,91.5495,10.7719z"/>
	<path class="st2" d="M101.7081,14.3142c0.0278,1.6335,1.0704,2.3058,2.279,2.3058c0.8652,0,1.387-0.1506,1.8397-0.3434
		l0.2062,0.8652c-0.4259,0.1918-1.1539,0.4115-2.211,0.4115c-2.0449,0-3.2669-1.3447-3.2669-3.3494s1.1808-3.5825,3.1164-3.5825
		c2.1687,0,2.7451,1.9078,2.7451,3.1298c0,0.2465-0.0268,0.4393-0.0412,0.5631h-4.6673V14.3142z M105.2504,13.449
		c0.0134-0.7693-0.3156-1.9635-1.6747-1.9635c-1.222,0-1.7572,1.1261-1.8542,1.9635H105.2504z"/>
	<path class="st2" d="M107.913,12.8447c0-0.7827-0.0134-1.4551-0.0546-2.0728h1.057l0.0413,1.3045h0.0547
		c0.3021-0.893,1.0292-1.4551,1.8397-1.4551c0.1372,0,0.2331,0.0134,0.3424,0.0402v1.1395
		c-0.1227-0.0268-0.2465-0.0412-0.4115-0.0412c-0.8508,0-1.4551,0.6455-1.6201,1.552c-0.0268,0.165-0.0547,0.3568-0.0547,0.5631
		v3.5412h-1.1942C107.913,17.4161,107.913,12.8447,107.913,12.8447z"/>
</g>
</svg>
