<?xml version="1.0" encoding="UTF-8" standalone="no"?>
<!-- Generator: Adobe Illustrator 25.3.1, SVG Export Plug-In . SVG Version: 6.00 Build 0)  -->

<svg
   version="1.1"
   id="entity-viewer"
   x="0px"
   y="0px"
   viewBox="0 0 126 28"
   style="enable-background:new 0 0 126 28;"
   width="126"
   height="28"
   xml:space="preserve"
   sodipodi:docname="id-feature-explorer.svg"
   inkscape:version="1.4.4 (dcaf3e7d, 2026-05-05)"
   xmlns:inkscape="http://www.inkscape.org/namespaces/inkscape"
   xmlns:sodipodi="http://sodipodi.sourceforge.net/DTD/sodipodi-0.dtd"
   xmlns="http://www.w3.org/2000/svg"
   xmlns:svg="http://www.w3.org/2000/svg"><defs
   id="defs18" /><sodipodi:namedview
   id="namedview18"
   pagecolor="#ffffff"
   bordercolor="#000000"
   borderopacity="0.25"
   inkscape:showpageshadow="2"
   inkscape:pageopacity="0.0"
   inkscape:pagecheckerboard="0"
   inkscape:deskcolor="#d1d1d1"
   inkscape:zoom="3.4905549"
   inkscape:cx="59.732622"
   inkscape:cy="9.4540841"
   inkscape:window-width="1228"
   inkscape:window-height="393"
   inkscape:window-x="0"
   inkscape:window-y="30"
   inkscape:window-maximized="0"
   inkscape:current-layer="g18" />
<style
   type="text/css"
   id="style1">
	.st0{fill:#6F8190;}
	.st1{fill:#FFFFFF;}
	.st2{fill:#1B2C39;}
</style>
<g
   id="g7">
	<rect
   class="st0"
   width="28"
   height="28"
   id="rect1" />
	<g
   id="g6">
		<path
   class="st1"
   d="M9.8,17.5c-0.7-0.8556-1.1667-1.8667-1.2444-3.0333H6.6889c0.0778,1.6333,0.7778,3.1111,1.7889,4.3556    L9.8,17.5z"
   id="path1" />
		<path
   class="st1"
   d="M14.4667,6.6889v1.8667c2.5667,0.2333,4.6667,2.3333,4.9,4.9h1.8667C21,9.8778,18.1222,6.9222,14.4667,6.6889    z"
   id="path2" />
		<path
   class="st1"
   d="M14,19.4444c-1.2444,0-2.4889-0.4667-3.5-1.2444l-1.3222,1.2444C10.5,20.6111,12.2111,21.3111,14,21.3111    c3.8889,0,7.0778-3.0333,7.3111-6.8444h-1.8667C19.1333,17.2667,16.8,19.4444,14,19.4444z"
   id="path3" />
		<path
   class="st1"
   d="M13.5333,8.5556V3.8889c-3.2667,0.1556-6.2222,1.8667-8.0111,4.6667l4.1222,2.3333    C10.4222,9.5667,11.9,8.7111,13.5333,8.5556z"
   id="path4" />
		<path
   class="st1"
   d="M14,22.2444c-2.0222,0-3.9667-0.7778-5.4444-2.1l-1.3222,1.3222c1.8667,1.7111,4.2778,2.6444,6.8444,2.6444    c5.4444,0,9.8778-4.2778,10.1111-9.6444h-1.8667C21.9333,18.8222,18.3556,22.2444,14,22.2444z"
   id="path5" />
		<path
   class="st1"
   d="M4.9778,9.3333c-0.6222,1.2444-1.0111,2.7222-1.1667,4.2h4.6667c0.0778-0.6222,0.2333-1.2444,0.4667-1.8667    L4.9778,9.3333z"
   id="path6" />
	</g>
</g>
<g
   id="g18">
	
	
	
	
	
	
	
	
	
	
	
	
<text
   xml:space="preserve"
   style="writing-mode:lr-tb;direction:ltr;fill:#000000"
   x="60.307693"
   y="12.923077"
   id="text18"><tspan
     sodipodi:role="line"
     id="tspan18"
     x="60.307693"
     y="12.923077" /></text><text
   xml:space="preserve"
   style="font-size:11.3333px;writing-mode:lr-tb;direction:ltr;fill:#000000"
   x="29.140539"
   y="17.734716"
   id="text19"><tspan
     sodipodi:role="line"
     id="tspan19"
     x="29.140539"
     y="17.734716"
     style="font-size:11.3333px">Feature explorer</tspan></text></g>
</svg>
