<?xml version="1.0" encoding="utf-8"?>
<!-- Generator: Adobe Illustrator 25.3.1, SVG Export Plug-In . SVG Version: 6.00 Build 0)  -->
<svg version="1.1" id="genome_browser" xmlns="http://www.w3.org/2000/svg" xmlns:xlink="http://www.w3.org/1999/xlink" x="0px"
	 y="0px" viewBox="0 0 150 28" style="enable-background:new 0 0 150 28;" width="150" height="28" xml:space="preserve">
<style type="text/css">
	.st0{fill:#6F8190;}
	.st1{fill:#FFFFFF;}
	.st2{fill:#17354E;}
</style>
<g>
	<rect class="st0" width="28" height="28"/>
	<path class="st1" d="M6.6111,22.0111c0,0.3111,0.1556,0.5444,0.5444,0.5444h1.0889c0.3111,0,0.5444-0.1556,0.5444-0.4667
		c0-0.1556,0.0778-0.3111,0.0778-0.5444H19.211c0.0778,0.3111,0.0778,0.4667,0.0778,0.5444c0,0.3111,0.3111,0.4667,0.5444,0.4667
		h1.0889c0.3111,0,0.5444-0.3111,0.5444-0.5444c-0.1556-1.3222-0.9333-4.2778-3.9667-7c-0.5444,0.4667-1.3222,0.7-1.9444,1.2444
		c0.1556,0.1556,0.3111,0.3111,0.5444,0.5444h-4.1222c0.6222-0.5444,1.6333-1.2444,2.6444-1.7111
		c5.6-2.8778,6.6889-7.3111,6.8444-9.0222c0-0.3111-0.1556-0.5444-0.5444-0.5444h-1.0889c-0.3111,0-0.5444,0.1556-0.5444,0.4667
		c0,0.0778,0,0.3111-0.0778,0.5444H8.7889C8.7111,6.2222,8.7111,5.9889,8.6333,5.9111c0-0.2333-0.3111-0.4667-0.5444-0.4667H7.0778
		C6.6111,5.3667,6.6111,5.6,6.6111,5.9111C6.7667,7.4667,7.7,11.1222,11.8222,14C7.5444,16.8,6.6111,20.5333,6.6111,22.0111z
		 M13.9222,12.6778c-0.9333-0.4667-1.6333-0.9333-2.0222-1.5556h4.1222C15.4,11.7444,14.7,12.2111,13.9222,12.6778L13.9222,12.6778z
		 M18.1222,8.5556C17.9667,8.8667,17.6556,9.1778,17.5,9.6444h-7.2333c-0.2333-0.3889-0.5444-0.6222-0.5444-1.0889h8.3999V8.5556z
		 M9.6444,19.2111C9.8,18.9,10.1111,18.5889,10.2667,18.1222h7.1556c0.3111,0.3111,0.5444,0.6222,0.6222,1.0889H9.6444z"/>
</g>
<g>
	<path class="st2" d="M45.5164,17.3426c-0.5299,0.1909-1.5765,0.5034-2.8135,0.5034c-1.3866,0-2.5281-0.3533-3.4256-1.2099
		C38.4891,15.8754,38,14.6512,38,13.2248c0.0133-2.7323,1.8889-4.7305,4.9613-4.7305c1.0598,0,1.8889,0.2313,2.2836,0.4217
		l-0.2854,0.9649c-0.4896-0.2175-1.1012-0.3941-2.0258-0.3941c-2.2289,0-3.6834,1.3866-3.6834,3.6834
		c0,2.3244,1.3999,3.6967,3.5344,3.6967c0.7745,0,1.3049-0.1082,1.5765-0.244v-2.7318h-1.8624v-0.9518h3.0177L45.5164,17.3426
		L45.5164,17.3426z"/>
	<path class="st2" d="M48.0169,14.6786c0.0271,1.6173,1.0604,2.2841,2.2565,2.2841c0.8561,0,1.3728-0.1501,1.8215-0.34
		l0.2037,0.8556c-0.4212,0.1909-1.1415,0.4084-2.1881,0.4084c-2.0258,0-3.2352-1.3325-3.2352-3.3164
		c0-1.9844,1.1686-3.5476,3.0856-3.5476c2.1473,0,2.7185,1.8889,2.7185,3.0989c0,0.2445-0.0276,0.4345-0.0408,0.557H48.0169z
		 M51.5237,13.8225c0.0138-0.7612-0.3124-1.9436-1.6582-1.9436c-1.2094,0-1.7399,1.1145-1.8348,1.9436H51.5237z"/>
	<path class="st2" d="M54.1605,12.9526c0-0.6795-0.0138-1.2365-0.0546-1.7807h1.0604l0.0679,1.0874h0.0271
		c0.3262-0.6249,1.0874-1.2365,2.1748-1.2365c0.9108,0,2.3244,0.5437,2.3244,2.7997v3.9285h-1.1962v-3.7922
		c0-1.0604-0.3941-1.9441-1.5224-1.9441c-0.7882,0-1.3999,0.5575-1.6041,1.2237c-0.0541,0.1491-0.0812,0.3533-0.0812,0.557v3.9555
		h-1.1962v-4.7983H54.1605z"/>
	<path class="st2" d="M67.6572,14.4069c0,2.4332-1.6852,3.493-3.2755,3.493c-1.7807,0-3.1535-1.3049-3.1535-3.3848
		c0-2.2014,1.4407-3.4925,3.2622-3.4925C66.3799,11.0228,67.6572,12.3955,67.6572,14.4069z M62.4377,14.4743
		c0,1.4417,0.8291,2.5291,1.9982,2.5291c1.142,0,1.9982-1.0741,1.9982-2.5557c0-1.1145-0.5575-2.5281-1.9706-2.5281
		C63.0493,11.9198,62.4377,13.2247,62.4377,14.4743z"/>
	<path class="st2" d="M69.1663,12.9526c0-0.6795-0.0138-1.2365-0.0546-1.7807h1.0466l0.0546,1.0604h0.0408
		c0.3666-0.6254,0.9787-1.2094,2.0656-1.2094c0.8975,0,1.5775,0.5437,1.8624,1.3182h0.0276
		c0.2032-0.3671,0.4615-0.6524,0.7341-0.8561c0.3941-0.2992,0.8296-0.462,1.4545-0.462c0.8699,0,2.1616,0.5708,2.1616,2.8543v3.8738
		h-1.1691v-3.7243c0-1.2641-0.4625-2.0252-1.4274-2.0252c-0.6805,0-1.2104,0.5029-1.4136,1.0874
		c-0.0551,0.1629-0.096,0.3803-0.096,0.5978v4.0643h-1.1681v-3.9417c0-1.0466-0.4625-1.8078-1.3733-1.8078
		c-0.7474,0-1.2916,0.5978-1.4815,1.1962c-0.0679,0.1766-0.0955,0.3803-0.0955,0.584v3.9693h-1.1686v-4.7985H69.1663z"/>
	<path class="st2" d="M81.1682,14.6786c0.0276,1.6173,1.0599,2.2841,2.2565,2.2841c0.8567,0,1.3733-0.1501,1.8215-0.34
		l0.2042,0.8556c-0.4217,0.1909-1.1426,0.4084-2.1891,0.4084c-2.0247,0-3.2347-1.3325-3.2347-3.3164
		c0-1.9844,1.1691-3.5476,3.0856-3.5476c2.1473,0,2.718,1.8889,2.718,3.0989c0,0.2445-0.0266,0.4345-0.0408,0.557H81.1682z
		 M84.6755,13.8225c0.0133-0.7612-0.3124-1.9436-1.6582-1.9436c-1.2099,0-1.7399,1.1145-1.8358,1.9436H84.6755z"/>
	<path class="st2" d="M90.1391,17.7509c0.0265-0.4493,0.0541-1.115,0.0541-1.699V8.1h1.1824v4.1322h0.0276
		c0.4207-0.7336,1.1824-1.2094,2.2422-1.2094c1.6316,0,2.7864,1.359,2.7732,3.3567c0,2.3515-1.4815,3.5206-2.9498,3.5206
		c-0.9516,0-1.7123-0.3666-2.2024-1.2365h-0.0398l-0.0551,1.0874H90.1391z M91.3756,15.1136c0,0.1501,0.0276,0.2992,0.0541,0.435
		c0.2318,0.8291,0.9251,1.3999,1.795,1.3999c1.2498,0,1.9972-1.019,1.9972-2.5281c0-1.3182-0.679-2.4464-1.9573-2.4464
		c-0.8148,0-1.5765,0.5575-1.8205,1.4683c-0.0276,0.1358-0.0684,0.2992-0.0684,0.4891L91.3756,15.1136L91.3756,15.1136z"/>
	<path class="st2" d="M97.9277,13.2247c0-0.775-0.0143-1.4407-0.0541-2.0528h1.0466l0.0408,1.2916h0.0541
		c0.2992-0.8837,1.019-1.4407,1.8215-1.4407c0.1358,0,0.2308,0.0133,0.34,0.0408v1.1277c-0.1225-0.0271-0.245-0.0403-0.4084-0.0403
		c-0.8424,0-1.4407,0.6387-1.6041,1.5357C99.1375,13.85,99.11,14.04,99.11,14.2437v3.5073h-1.1824v-4.5263H97.9277z"/>
	<path class="st2" d="M108.1902,14.4069c0,2.4332-1.6857,3.493-3.2765,3.493c-1.7807,0-3.153-1.3049-3.153-3.3848
		c0-2.2014,1.4407-3.4925,3.2622-3.4925C106.9119,11.0228,108.1902,12.3955,108.1902,14.4069z M102.9706,14.4743
		c0,1.4417,0.8291,2.5291,1.9982,2.5291c1.1415,0,1.9982-1.0741,1.9982-2.5557c0-1.1145-0.5575-2.5281-1.9716-2.5281
		C103.5822,11.9198,102.9706,13.2247,102.9706,14.4743z"/>
	<path class="st2" d="M110.0791,11.1719l0.8699,3.3434c0.1899,0.7341,0.3666,1.4141,0.4891,2.0931h0.0408
		c0.1491-0.6657,0.3666-1.3723,0.584-2.0789l1.0741-3.3577h1.0057l1.02,3.2893c0.244,0.7882,0.435,1.4815,0.584,2.1473h0.0408
		c0.1082-0.6657,0.2859-1.359,0.5034-2.134l0.9373-3.3026h1.1824l-2.1197,6.5791h-1.0874l-1.0068-3.1397
		c-0.2308-0.7341-0.4207-1.3866-0.584-2.1616h-0.0276c-0.1624,0.7888-0.3666,1.4683-0.5973,2.1748l-1.0609,3.1264h-1.0874
		l-1.9839-6.5791h1.2235V11.1719z"/>
	<path class="st2" d="M119.3615,16.5278c0.3533,0.2308,0.9792,0.4758,1.5765,0.4758c0.8699,0,1.2784-0.435,1.2784-0.9792
		c0-0.5708-0.34-0.8832-1.2232-1.2099c-1.1834-0.4207-1.7399-1.0731-1.7399-1.8619c0-1.0598,0.8556-1.9298,2.2698-1.9298
		c0.6657,0,1.2508,0.1899,1.6173,0.4074L122.8412,12.3c-0.2583-0.1629-0.7341-0.3803-1.3457-0.3803
		c-0.7066,0-1.1007,0.4079-1.1007,0.897c0,0.5437,0.3941,0.7882,1.2508,1.1145c1.1415,0.435,1.7256,1.0057,1.7256,1.9849
		c0,1.1548-0.8965,1.9706-2.4597,1.9706c-0.7209,0-1.3866-0.1766-1.8491-0.4482L119.3615,16.5278z"/>
	<path class="st2" d="M125.5735,14.6786c0.0276,1.6173,1.0598,2.2841,2.2565,2.2841c0.8567,0,1.3733-0.1501,1.8215-0.34
		l0.2042,0.8556c-0.4217,0.1909-1.1426,0.4084-2.1891,0.4084c-2.0247,0-3.2347-1.3325-3.2347-3.3164
		c0-1.9844,1.1691-3.5476,3.0856-3.5476c2.1473,0,2.718,1.8889,2.718,3.0989c0,0.2445-0.0266,0.4345-0.0408,0.557H125.5735z
		 M129.0808,13.8225c0.0133-0.7612-0.3124-1.9436-1.6582-1.9436c-1.2099,0-1.7399,1.1145-1.8358,1.9436H129.0808z"/>
	<path class="st2" d="M131.7172,13.2247c0-0.775-0.0133-1.4407-0.0541-2.0528h1.0466l0.0408,1.2916h0.0541
		c0.2992-0.8837,1.019-1.4407,1.8215-1.4407c0.1358,0,0.2308,0.0133,0.339,0.0408v1.1277c-0.1215-0.0271-0.244-0.0403-0.4074-0.0403
		c-0.8424,0-1.4407,0.6387-1.604,1.5357c-0.0266,0.1634-0.0541,0.3533-0.0541,0.557v3.5073h-1.1824L131.7172,13.2247
		L131.7172,13.2247z"/>
</g>
</svg>
