<?xml version="1.0" encoding="utf-8"?>
<!-- Generator: Adobe Illustrator 25.3.1, SVG Export Plug-In . SVG Version: 6.00 Build 0)  -->
<svg version="1.1" id="help" xmlns="http://www.w3.org/2000/svg" xmlns:xlink="http://www.w3.org/1999/xlink" x="0px" y="0px"
	 viewBox="0 0 78 28" style="enable-background:new 0 0 78 28;" width="78" height="28" xml:space="preserve">
<style type="text/css">
	.st0{fill:#6F8190;}
	.st1{fill:#FFFFFF;}
	.st2{display:none;}
	.st3{display:inline;fill:#1B2C39;}
	.st4{fill:#1B2C39;}
</style>
<g>
	<rect class="st0" width="28" height="28"/>
	<path class="st1" d="M15.8852,19.6507c0,1.2284-0.9827,2.1293-2.1293,2.1293s-2.1293-0.9827-2.1293-2.1293
		c0-1.1465,0.9827-2.1293,2.1293-2.1293S15.8852,18.4223,15.8852,19.6507z M19.161,10.7242c0,3.4396-3.6853,3.4396-3.6853,4.7499
		v0.3276c0,0.3276-0.2457,0.6552-0.6552,0.6552h-2.3749c-0.3276,0-0.6552-0.2457-0.6552-0.6552v-0.4095
		c0-1.8017,1.3922-2.5387,2.4568-3.112c0.9008-0.4914,1.4741-0.8189,1.4741-1.4741c0-0.9008-1.1465-1.4741-2.0474-1.4741
		c-1.2284,0-1.7198,0.5733-2.4568,1.4741c-0.2457,0.2457-0.5733,0.3276-0.8189,0.0819L9.088,9.8234
		C8.8423,9.5777,8.7604,9.2501,8.9242,9.0044C10.1526,7.2027,11.7086,6.22,14.0836,6.22C16.5404,6.22,19.161,8.1855,19.161,10.7242z
		"/>
</g>
<g class="st2">
	<path class="st3" d="M45.7524,16.3319c0.5281,0.3256,1.3005,0.5963,2.1135,0.5963c1.2053,0,1.91-0.637,1.91-1.5579
		c0-0.8538-0.4879-1.3412-1.7207-1.8154c-1.4897-0.5281-2.4112-1.3005-2.4112-2.5872c0-1.4221,1.1784-2.4788,2.953-2.4788
		c0.9346,0,1.6124,0.2167,2.0184,0.4467l-0.3251,0.9621c-0.2976-0.1628-0.9072-0.4335-1.734-0.4335
		c-1.246,0-1.7202,0.7449-1.7202,1.3681c0,0.8532,0.5556,1.2735,1.8154,1.7609c1.5442,0.5963,2.3298,1.3412,2.3298,2.6823
		c0,1.4083-1.043,2.6274-3.1967,2.6274c-0.8807,0-1.8423-0.2574-2.3303-0.5821L45.7524,16.3319z"/>
	<path class="st3" d="M52.5529,13.3514c0-0.8395-0.0275-1.5172-0.0544-2.1395h1.07l0.0544,1.1239h0.027
		c0.4879-0.7998,1.2598-1.273,2.3303-1.273c1.5849,0,2.777,1.3402,2.777,3.3316c0,2.3577-1.4358,3.5218-2.9805,3.5218
		c-0.867,0-1.6256-0.3785-2.0184-1.0288h-0.027V20.45h-1.1784C52.5529,20.45,52.5529,13.3514,52.5529,13.3514z M53.7312,15.0996
		c0,0.176,0.027,0.3378,0.0539,0.4874c0.2167,0.8263,0.9352,1.3951,1.7884,1.3951c1.2598,0,1.9914-1.0298,1.9914-2.5328
		c0-1.3147-0.6909-2.4391-1.9507-2.4391c-0.813,0-1.5717,0.5831-1.8016,1.4765c-0.0407,0.1496-0.0814,0.3256-0.0814,0.4884V15.0996z
		"/>
	<path class="st3" d="M60.9235,14.7068c0.0275,1.6118,1.0568,2.2753,2.2489,2.2753c0.8532,0,1.3681-0.1486,1.8154-0.3389
		l0.203,0.8538c-0.4198,0.1893-1.1377,0.406-2.1812,0.406c-2.0184,0-3.2237-1.3269-3.2237-3.3051s1.1651-3.5351,3.0751-3.5351
		c2.14,0,2.7093,1.8825,2.7093,3.0884c0,0.2432-0.0275,0.4335-0.0407,0.5556C65.5296,14.7068,60.9235,14.7068,60.9235,14.7068z
		 M64.4189,13.853c0.0132-0.7591-0.3119-1.9375-1.6531-1.9375c-1.2053,0-1.734,1.1112-1.8286,1.9375H64.4189z"/>
	<path class="st3" d="M71.72,17.5245c-0.3114,0.1618-1.0023,0.3785-1.883,0.3785c-1.9777,0-3.2644-1.3412-3.2644-3.3458
		c0-2.0179,1.3814-3.4811,3.5218-3.4811c0.7047,0,1.3274,0.176,1.6531,0.3389l-0.2712,0.9209
		c-0.2844-0.1628-0.7316-0.3114-1.3819-0.3114c-1.5035,0-2.3165,1.1102-2.3165,2.4788c0,1.5172,0.9754,2.4514,2.2758,2.4514
		c0.6777,0,1.1244-0.176,1.4633-0.3246L71.72,17.5245z"/>
	<path class="st3" d="M74.4426,9.3691c0.0137,0.4065-0.2844,0.7316-0.7586,0.7316c-0.4203,0-0.7179-0.3251-0.7179-0.7316
		c0-0.4198,0.3114-0.7449,0.7449-0.7449C74.1581,8.6242,74.4426,8.9493,74.4426,9.3691z M73.1151,17.7677v-6.5558h1.1921v6.5558
		H73.1151z"/>
	<path class="st3" d="M76.9484,14.7068c0.0275,1.6118,1.0563,2.2753,2.2489,2.2753c0.8537,0,1.3686-0.1486,1.8154-0.3389
		l0.2035,0.8538c-0.4203,0.1893-1.1387,0.406-2.1817,0.406c-2.0179,0-3.2237-1.3269-3.2237-3.3051s1.1651-3.5351,3.0751-3.5351
		c2.14,0,2.7088,1.8825,2.7088,3.0884c0,0.2432-0.0265,0.4335-0.0407,0.5556C81.554,14.7068,76.9484,14.7068,76.9484,14.7068z
		 M80.4437,13.853c0.0132-0.7591-0.3114-1.9375-1.6525-1.9375c-1.2058,0-1.734,1.1112-1.8296,1.9375H80.4437z"/>
	<path class="st3" d="M82.9083,16.5486c0.3521,0.23,0.9759,0.4742,1.5711,0.4742c0.867,0,1.274-0.4335,1.274-0.9748
		c0-0.5698-0.3389-0.8812-1.2191-1.2058c-1.1794-0.4203-1.734-1.0705-1.734-1.8561c0-1.0562,0.8527-1.9232,2.2621-1.9232
		c0.6635,0,1.2455,0.1893,1.6118,0.406l-0.2981,0.867c-0.2574-0.1628-0.7316-0.3796-1.3412-0.3796
		c-0.7042,0-1.0969,0.407-1.0969,0.8945c0,0.5414,0.3928,0.7856,1.2465,1.1102c1.1376,0.4335,1.7197,1.0033,1.7197,1.9782
		c0,1.1519-0.8934,1.9639-2.4514,1.9639c-0.7184,0-1.3819-0.176-1.8428-0.4467L82.9083,16.5486z"/>
	<path class="st3" d="M91.1446,16.5486c0.3521,0.23,0.9759,0.4742,1.5711,0.4742c0.867,0,1.274-0.4335,1.274-0.9748
		c0-0.5698-0.3389-0.8812-1.2191-1.2058c-1.1794-0.4203-1.734-1.0705-1.734-1.8561c0-1.0562,0.8527-1.9232,2.2621-1.9232
		c0.6635,0,1.2455,0.1893,1.6118,0.406l-0.2981,0.867c-0.2574-0.1628-0.7316-0.3796-1.3412-0.3796
		c-0.7042,0-1.097,0.407-1.097,0.8945c0,0.5414,0.3928,0.7856,1.2465,1.1102c1.1377,0.4335,1.7197,1.0033,1.7197,1.9782
		c0,1.1519-0.8934,1.9639-2.4513,1.9639c-0.7184,0-1.3819-0.176-1.8428-0.4467L91.1446,16.5486z"/>
	<path class="st3" d="M97.3346,14.7068c0.0275,1.6118,1.0563,2.2753,2.2489,2.2753c0.8537,0,1.3686-0.1486,1.8154-0.3389
		l0.2035,0.8538c-0.4203,0.1893-1.1387,0.406-2.1817,0.406c-2.0179,0-3.2237-1.3269-3.2237-3.3051s1.1651-3.5351,3.0751-3.5351
		c2.14,0,2.7088,1.8825,2.7088,3.0884c0,0.2432-0.0265,0.4335-0.0407,0.5556C101.9402,14.7068,97.3346,14.7068,97.3346,14.7068z
		 M100.8299,13.853c0.0132-0.7591-0.3114-1.9375-1.6525-1.9375c-1.2058,0-1.734,1.1112-1.8296,1.9375H100.8299z"/>
	<path class="st3" d="M103.4573,8.15h1.1916v9.6177h-1.1916V8.15z"/>
	<path class="st3" d="M107.318,14.7068c0.0275,1.6118,1.0573,2.2753,2.2488,2.2753c0.8538,0,1.3686-0.1486,1.8154-0.3389
		l0.2035,0.8538c-0.4203,0.1893-1.1387,0.406-2.1817,0.406c-2.0179,0-3.2237-1.3269-3.2237-3.3051s1.1651-3.5351,3.0751-3.5351
		c2.14,0,2.7088,1.8825,2.7088,3.0884c0,0.2432-0.0265,0.4335-0.0407,0.5556C111.9235,14.7068,107.318,14.7068,107.318,14.7068z
		 M110.8134,13.853c0.0132-0.7591-0.3114-1.9375-1.6525-1.9375c-1.2058,0-1.734,1.1112-1.8296,1.9375H110.8134z"/>
	<path class="st3" d="M118.1146,17.5245c-0.3124,0.1618-1.0023,0.3785-1.8835,0.3785c-1.9772,0-3.2644-1.3412-3.2644-3.3458
		c0-2.0179,1.3819-3.4811,3.5219-3.4811c0.7042,0,1.3279,0.176,1.6525,0.3389l-0.2707,0.9209
		c-0.2849-0.1628-0.7316-0.3114-1.3819-0.3114c-1.504,0-2.316,1.1102-2.316,2.4788c0,1.5172,0.9748,2.4514,2.2753,2.4514
		c0.6777,0,1.1244-0.176,1.4633-0.3246L118.1146,17.5245z"/>
	<path class="st3" d="M121.1215,9.3289v1.883h1.7065v0.9072h-1.7065v3.5351c0,0.813,0.23,1.274,0.8945,1.274
		c0.3114,0,0.5414-0.0407,0.6909-0.0814l0.0539,0.8934c-0.231,0.0957-0.5963,0.1628-1.0573,0.1628
		c-0.5546,0-1.0023-0.176-1.2862-0.5006c-0.3389-0.3521-0.461-0.9352-0.461-1.7075v-3.5758h-1.0155v-0.9072h1.0155V9.6402
		L121.1215,9.3289z"/>
	<path class="st3" d="M130.0213,14.4351c0,2.4249-1.68,3.4811-3.2654,3.4811c-1.7747,0-3.1423-1.2994-3.1423-3.3723
		c0-2.1949,1.4358-3.4811,3.2512-3.4811C128.7473,11.0628,130.0213,12.4305,130.0213,14.4351z M124.8194,14.5033
		c0,1.4358,0.8263,2.5195,1.9914,2.5195c1.1377,0,1.9914-1.0705,1.9914-2.547c0-1.1102-0.5556-2.5195-1.965-2.5195
		C125.4289,11.9563,124.8194,13.2567,124.8194,14.5033z"/>
	<path class="st3" d="M131.5242,13.2567c0-0.7723-0.0132-1.4358-0.0539-2.0448h1.043l0.0407,1.2867h0.0539
		c0.2981-0.8812,1.0155-1.4358,1.8154-1.4358c0.1353,0,0.23,0.0132,0.3378,0.0402v1.1239c-0.1211-0.0265-0.2432-0.0407-0.406-0.0407
		c-0.8395,0-1.4358,0.637-1.5986,1.5315c-0.0265,0.1628-0.0539,0.3521-0.0539,0.5556v3.4944h-1.1784V13.2567z"/>
</g>
<g>
	<path class="st4" d="M39.1562,8.7075v3.791h4.3823v-3.791h1.1831v9.061h-1.1831V13.52h-4.3823v4.2485h-1.1699v-9.061H39.1562z"/>
	<path class="st4" d="M47.374,14.73c0.0269,1.6001,1.0483,2.2583,2.2314,2.2583c0.8467,0,1.3579-0.1475,1.8013-0.3359l0.2017,0.8467
		c-0.4165,0.1885-1.1289,0.4033-2.1641,0.4033c-2.0034,0-3.1997-1.3174-3.1997-3.2798c0-1.9629,1.1562-3.5088,3.0518-3.5088
		c2.124,0,2.6885,1.8687,2.6885,3.0649c0,0.2422-0.0269,0.4302-0.0405,0.5513H47.374z M50.8423,13.8828
		c0.0132-0.7524-0.3091-1.9224-1.6401-1.9224c-1.1963,0-1.7207,1.1025-1.8149,1.9224H50.8423z"/>
	<path class="st4" d="M53.4541,8.2236h1.1831v9.5449h-1.1831V8.2236z"/>
	<path class="st4" d="M56.6279,13.3857c0-0.8335-0.0269-1.5059-0.0537-2.124h1.062l0.0537,1.1157h0.0269
		c0.4839-0.793,1.25-1.2637,2.312-1.2637c1.5728,0,2.7559,1.3311,2.7559,3.3071c0,2.3389-1.4248,3.4951-2.9575,3.4951
		c-0.8604,0-1.6133-0.376-2.0029-1.0215h-0.0269v3.5352h-1.1694V13.3857z M57.7974,15.1201c0,0.1748,0.0269,0.3359,0.0537,0.4834
		c0.2153,0.8203,0.9277,1.3848,1.7744,1.3848c1.2505,0,1.9761-1.0215,1.9761-2.5137c0-1.3042-0.6855-2.4199-1.9355-2.4199
		c-0.8066,0-1.5596,0.5781-1.7881,1.4653c-0.04,0.1479-0.0806,0.3228-0.0806,0.4839V15.1201z"/>
</g>
</svg>
