<?xml version="1.0" encoding="utf-8"?>
<!-- Generator: Adobe Illustrator 25.3.1, SVG Export Plug-In . SVG Version: 6.00 Build 0)  -->
<svg version="1.1" id="species_selector" xmlns="http://www.w3.org/2000/svg" xmlns:xlink="http://www.w3.org/1999/xlink" x="0px"
	 y="0px" viewBox="0 0 142 28" style="enable-background:new 0 0 142 28;" xml:space="preserve">
<style type="text/css">
	.st0{fill:#6F8190;}
	.st1{fill:#FFFFFF;}
	.st2{fill:#1B2C39;}
</style>
<g>
	<rect class="st0" width="28" height="28"/>
	<g>
		<path id="_x3C_Compound_Path_pawprint_x3E_" class="st1" d="M5.9889,11.1222c-1.1667,0-2.1778-1.4778-2.1778-2.5667
			c0-0.7778,0.3889-1.4778,1.2444-1.4778c1.1667,0,2.1778,1.4778,2.1778,2.6444C7.2333,10.4222,6.8444,11.1222,5.9889,11.1222z
			 M15.0111,14c0,1.0111-0.8556,1.0889-1.7111,1.0889c-1.0889,0-1.8667-0.7-2.9556-0.7s-2.0222,0.7-3.1889,0.7
			c-0.7778,0-1.4778-0.3111-1.4778-1.0889c0-1.7889,2.6444-4.5111,4.5889-4.5111S15.0111,12.2111,15.0111,14z M8.4778,7.9333
			c-1.4,0-2.1-1.5556-2.1-2.5667c0-0.8556,0.4667-1.7889,1.4778-1.7889c1.4,0,2.1,1.5556,2.1,2.5667
			C9.9556,6.9222,9.4889,7.9333,8.4778,7.9333z M10.8111,6.0667c0-1.0889,0.7778-2.5667,2.1-2.5667
			c1.0111,0,1.4778,1.0111,1.4778,1.7889c0,1.0889-0.7778,2.5667-2.1,2.5667C11.2778,7.9333,10.8111,6.9222,10.8111,6.0667z
			 M17.0333,8.6333c0,1.0889-0.9333,2.5667-2.1778,2.5667c-0.9333,0-1.2444-0.7778-1.2444-1.4778
			c0-1.0889,0.9333-2.5667,2.1778-2.5667C16.6444,7.0778,17.0333,7.9333,17.0333,8.6333z"/>
		<path id="_x3C_Path_twig_x3E_" class="st1" d="M5.7556,17.5778c1.7889,1.0889,3.6556,1.7889,5.4444,2.1
			c0-0.4667,0-1.1667,0.3111-1.7111c0.7-1.0111,2.1778-1.0889,2.1778-1.0889S14,18.3556,13.3778,19.2889
			c-0.1556,0.3111-0.3889,0.3889-0.6222,0.6222c1.0111,0.0778,2.0222,0,2.8778-0.1556c-0.3111-0.6222-0.6222-1.7889-0.3111-2.9556
			c0.6222-1.5556,2.4111-2.4111,2.4111-2.4111s1.1667,1.7889,0.7,3.3444c-0.1556,0.6222-0.6222,1.0889-1.0889,1.4778
			c1.0111-0.3889,1.7889-0.9333,2.4889-1.7111c-0.0778-0.7778-0.0778-2.1778,0.7778-3.2667c1.1667-1.4778,3.5778-1.4,3.5778-1.4
			s0.3111,2.1-0.8556,3.5778c-0.8556,1.0111-2.1,1.4-2.8,1.4778c-0.3111,0.3111-0.7778,0.7-1.1667,1.0111
			c0.7-0.1556,1.4778-0.3111,2.1,0.0778c1.5556,0.7,2.1778,2.7222,2.1778,2.7222s-1.7889,0.9333-3.3444,0.3111
			c-1.2444-0.4667-2.0222-1.7889-2.1778-2.2556c-0.8556,0.3889-1.7889,0.7-2.7222,0.8556c0.3889,0.1556,0.9333,0.3889,1.2444,0.7778
			c1.0111,1.0889,0.7,3.1111,0.7,3.1111s-1.7889,0-2.8-1.1667c-0.7778-0.8556-0.8556-2.0222-0.8556-2.5667
			c-1.1667,0-2.4111-0.1556-3.6556-0.4667c-1.7111-0.3889-3.2667-1.0889-4.7444-2.0222l-0.3111-0.3111l0.3889-0.7L5.7556,17.5778z"
			/>
	</g>
</g>
<g>
	<path class="st2" d="M38.1447,16.3319c0.5281,0.3256,1.3005,0.5963,2.1135,0.5963c1.2053,0,1.91-0.637,1.91-1.5579
		c0-0.8538-0.4879-1.3412-1.7207-1.8154c-1.4897-0.5281-2.4112-1.3005-2.4112-2.5872c0-1.4221,1.1784-2.4788,2.953-2.4788
		c0.9346,0,1.6124,0.2167,2.0184,0.4467l-0.3251,0.9621c-0.2976-0.1628-0.9072-0.4335-1.734-0.4335
		c-1.246,0-1.7202,0.7449-1.7202,1.3681c0,0.8532,0.5556,1.2735,1.8154,1.7609c1.5442,0.5963,2.3298,1.3412,2.3298,2.6823
		c0,1.4083-1.043,2.6274-3.1967,2.6274c-0.8807,0-1.8423-0.2574-2.3303-0.5821L38.1447,16.3319z"/>
	<path class="st2" d="M44.9452,13.3514c0-0.8395-0.0275-1.5172-0.0544-2.1395h1.07l0.0544,1.1239h0.027
		c0.4879-0.7998,1.2598-1.273,2.3303-1.273c1.5849,0,2.777,1.3402,2.777,3.3316c0,2.3577-1.4358,3.5218-2.9805,3.5218
		c-0.867,0-1.6256-0.3785-2.0184-1.0288h-0.027V20.45h-1.1784V13.3514z M46.1235,15.0996c0,0.176,0.027,0.3378,0.0539,0.4874
		c0.2167,0.8263,0.9352,1.3951,1.7884,1.3951c1.2598,0,1.9914-1.0298,1.9914-2.5328c0-1.3147-0.6909-2.4391-1.9507-2.4391
		c-0.813,0-1.5717,0.5831-1.8016,1.4765c-0.0407,0.1496-0.0814,0.3256-0.0814,0.4884V15.0996z"/>
	<path class="st2" d="M53.3158,14.7068c0.0275,1.6118,1.0568,2.2753,2.2489,2.2753c0.8532,0,1.3681-0.1486,1.8154-0.3389
		l0.203,0.8538c-0.4198,0.1893-1.1377,0.406-2.1812,0.406c-2.0184,0-3.2237-1.3269-3.2237-3.3051s1.1651-3.5351,3.0751-3.5351
		c2.14,0,2.7093,1.8825,2.7093,3.0884c0,0.2432-0.0275,0.4335-0.0407,0.5556H53.3158z M56.8112,13.853
		c0.0132-0.7591-0.3119-1.9375-1.6531-1.9375c-1.2053,0-1.734,1.1112-1.8286,1.9375H56.8112z"/>
	<path class="st2" d="M64.1123,17.5245c-0.3114,0.1618-1.0023,0.3785-1.883,0.3785c-1.9777,0-3.2644-1.3412-3.2644-3.3458
		c0-2.0179,1.3814-3.4811,3.5218-3.4811c0.7047,0,1.3274,0.176,1.6531,0.3389l-0.2712,0.9209
		c-0.2844-0.1628-0.7316-0.3114-1.3819-0.3114c-1.5035,0-2.3165,1.1102-2.3165,2.4788c0,1.5172,0.9754,2.4514,2.2758,2.4514
		c0.6777,0,1.1244-0.176,1.4633-0.3246L64.1123,17.5245z"/>
	<path class="st2" d="M66.8349,9.3691c0.0137,0.4065-0.2844,0.7316-0.7586,0.7316c-0.4203,0-0.7179-0.3251-0.7179-0.7316
		c0-0.4198,0.3114-0.7449,0.7449-0.7449C66.5504,8.6242,66.8349,8.9493,66.8349,9.3691z M65.5074,17.7677v-6.5558h1.1921v6.5558
		H65.5074z"/>
	<path class="st2" d="M69.3407,14.7068c0.0275,1.6118,1.0563,2.2753,2.2489,2.2753c0.8537,0,1.3686-0.1486,1.8154-0.3389
		l0.2035,0.8538c-0.4203,0.1893-1.1387,0.406-2.1817,0.406c-2.0179,0-3.2237-1.3269-3.2237-3.3051s1.1651-3.5351,3.0751-3.5351
		c2.14,0,2.7088,1.8825,2.7088,3.0884c0,0.2432-0.0265,0.4335-0.0407,0.5556H69.3407z M72.836,13.853
		c0.0132-0.7591-0.3114-1.9375-1.6525-1.9375c-1.2058,0-1.734,1.1112-1.8296,1.9375H72.836z"/>
	<path class="st2" d="M75.3006,16.5486c0.3521,0.23,0.9759,0.4742,1.5711,0.4742c0.867,0,1.274-0.4335,1.274-0.9748
		c0-0.5698-0.3389-0.8812-1.2191-1.2058c-1.1794-0.4203-1.734-1.0705-1.734-1.8561c0-1.0562,0.8527-1.9232,2.2621-1.9232
		c0.6635,0,1.2455,0.1893,1.6118,0.406l-0.2981,0.867c-0.2574-0.1628-0.7316-0.3796-1.3412-0.3796
		c-0.7042,0-1.0969,0.407-1.0969,0.8945c0,0.5414,0.3928,0.7856,1.2465,1.1102c1.1376,0.4335,1.7197,1.0033,1.7197,1.9782
		c0,1.1519-0.8934,1.9639-2.4514,1.9639c-0.7184,0-1.3819-0.176-1.8428-0.4467L75.3006,16.5486z"/>
	<path class="st2" d="M83.5369,16.5486c0.3521,0.23,0.9759,0.4742,1.5711,0.4742c0.867,0,1.274-0.4335,1.274-0.9748
		c0-0.5698-0.3389-0.8812-1.2191-1.2058c-1.1794-0.4203-1.734-1.0705-1.734-1.8561c0-1.0562,0.8527-1.9232,2.2621-1.9232
		c0.6635,0,1.2455,0.1893,1.6118,0.406l-0.2981,0.867c-0.2574-0.1628-0.7316-0.3796-1.3412-0.3796
		c-0.7042,0-1.097,0.407-1.097,0.8945c0,0.5414,0.3928,0.7856,1.2465,1.1102c1.1377,0.4335,1.7197,1.0033,1.7197,1.9782
		c0,1.1519-0.8934,1.9639-2.4513,1.9639c-0.7184,0-1.3819-0.176-1.8428-0.4467L83.5369,16.5486z"/>
	<path class="st2" d="M89.7269,14.7068c0.0275,1.6118,1.0563,2.2753,2.2489,2.2753c0.8537,0,1.3686-0.1486,1.8154-0.3389
		l0.2035,0.8538c-0.4203,0.1893-1.1387,0.406-2.1817,0.406c-2.0179,0-3.2237-1.3269-3.2237-3.3051s1.1651-3.5351,3.0751-3.5351
		c2.14,0,2.7088,1.8825,2.7088,3.0884c0,0.2432-0.0265,0.4335-0.0407,0.5556H89.7269z M93.2222,13.853
		c0.0132-0.7591-0.3114-1.9375-1.6525-1.9375c-1.2058,0-1.734,1.1112-1.8296,1.9375H93.2222z"/>
	<path class="st2" d="M95.8496,8.15h1.1916v9.6177h-1.1916V8.15z"/>
	<path class="st2" d="M99.7103,14.7068c0.0275,1.6118,1.0573,2.2753,2.2488,2.2753c0.8538,0,1.3686-0.1486,1.8154-0.3389
		l0.2035,0.8538c-0.4203,0.1893-1.1387,0.406-2.1817,0.406c-2.0179,0-3.2237-1.3269-3.2237-3.3051s1.1651-3.5351,3.0751-3.5351
		c2.14,0,2.7088,1.8825,2.7088,3.0884c0,0.2432-0.0265,0.4335-0.0407,0.5556H99.7103z M103.2057,13.853
		c0.0132-0.7591-0.3114-1.9375-1.6525-1.9375c-1.2058,0-1.734,1.1112-1.8296,1.9375H103.2057z"/>
	<path class="st2" d="M110.5069,17.5245c-0.3124,0.1618-1.0023,0.3785-1.8835,0.3785c-1.9772,0-3.2644-1.3412-3.2644-3.3458
		c0-2.0179,1.3819-3.4811,3.5219-3.4811c0.7042,0,1.3279,0.176,1.6525,0.3389l-0.2707,0.9209
		c-0.2849-0.1628-0.7316-0.3114-1.3819-0.3114c-1.504,0-2.316,1.1102-2.316,2.4788c0,1.5172,0.9748,2.4514,2.2753,2.4514
		c0.6777,0,1.1244-0.176,1.4633-0.3246L110.5069,17.5245z"/>
	<path class="st2" d="M113.5138,9.3289v1.883h1.7065v0.9072h-1.7065v3.5351c0,0.813,0.23,1.274,0.8945,1.274
		c0.3114,0,0.5414-0.0407,0.6909-0.0814l0.0539,0.8934c-0.231,0.0957-0.5963,0.1628-1.0573,0.1628
		c-0.5546,0-1.0023-0.176-1.2862-0.5006c-0.3389-0.3521-0.461-0.9352-0.461-1.7075v-3.5758h-1.0155v-0.9072h1.0155V9.6402
		L113.5138,9.3289z"/>
	<path class="st2" d="M122.4136,14.4351c0,2.4249-1.68,3.4811-3.2654,3.4811c-1.7747,0-3.1423-1.2994-3.1423-3.3723
		c0-2.1949,1.4358-3.4811,3.2512-3.4811C121.1396,11.0628,122.4136,12.4305,122.4136,14.4351z M117.2117,14.5033
		c0,1.4358,0.8263,2.5195,1.9914,2.5195c1.1377,0,1.9914-1.0705,1.9914-2.547c0-1.1102-0.5556-2.5195-1.965-2.5195
		C117.8212,11.9563,117.2117,13.2567,117.2117,14.5033z"/>
	<path class="st2" d="M123.9165,13.2567c0-0.7723-0.0132-1.4358-0.0539-2.0448h1.043l0.0407,1.2867h0.0539
		c0.2981-0.8812,1.0155-1.4358,1.8154-1.4358c0.1353,0,0.23,0.0132,0.3378,0.0402v1.1239c-0.1211-0.0265-0.2432-0.0407-0.406-0.0407
		c-0.8395,0-1.4358,0.637-1.5986,1.5315c-0.0265,0.1628-0.0539,0.3521-0.0539,0.5556v3.4944h-1.1784V13.2567z"/>
</g>
</svg>
