<?xml version="1.0" encoding="utf-8"?>
<!-- Generator: Adobe Illustrator 25.3.1, SVG Export Plug-In . SVG Version: 6.00 Build 0)  -->
<svg version="1.1" id="search" xmlns="http://www.w3.org/2000/svg" xmlns:xlink="http://www.w3.org/1999/xlink" x="0px" y="0px"
	 viewBox="0 0 89 28" style="enable-background:new 0 0 89 28;" width="89" height="28" xml:space="preserve">
<style type="text/css">
	.st0{fill:#6F8190;}
	.st1{fill:#FFFFFF;}
	.st2{fill:#1B2C39;}
</style>
<g>
	<rect class="st0" width="28" height="28"/>
	<path class="st1" d="M21.6495,19.7703l-3.0151-3.0151c-0.156-0.156-0.3119-0.2079-0.5198-0.2079h-0.4679
		c0.7798-1.0917,1.2996-2.3913,1.2996-3.9508c0-3.483-2.8592-6.2902-6.2902-6.2902S6.21,9.0614,6.21,12.5444
		s2.8592,6.2902,6.2902,6.2902c1.4556,0,2.8592-0.4679,3.9508-1.2996v0.4679c0,0.2079,0.052,0.3639,0.2079,0.5198l3.0151,3.0151
		c0.2079,0.2079,0.7798,0.2079,0.9877,0l0.8318-0.8318C21.8574,20.4981,21.8574,20.0302,21.6495,19.7703z M12.5002,16.5473
		c-2.1834,0-3.9508-1.7675-3.9508-3.9508s1.7675-3.9508,3.9508-3.9508s3.9508,1.7675,3.9508,3.9508
		C16.399,14.7278,14.6835,16.5473,12.5002,16.5473z"/>
</g>
<g>
	<path class="st2" d="M38.1694,16.3428c0.5244,0.3223,1.2905,0.5918,2.0972,0.5918c1.1963,0,1.8955-0.6318,1.8955-1.5459
		c0-0.8472-0.4839-1.3311-1.7075-1.8013c-1.4785-0.5244-2.3926-1.2905-2.3926-2.5679c0-1.4111,1.1694-2.46,2.9307-2.46
		c0.9272,0,1.5996,0.2153,2.0029,0.4438l-0.3228,0.9541c-0.2959-0.1611-0.9009-0.4302-1.7207-0.4302
		c-1.2368,0-1.707,0.7397-1.707,1.3579c0,0.8467,0.5508,1.2637,1.8013,1.7476c1.5322,0.5913,2.312,1.3311,2.312,2.6611
		c0,1.3984-1.0352,2.6084-3.1724,2.6084c-0.874,0-1.8286-0.2559-2.3125-0.5781L38.1694,16.3428z"/>
	<path class="st2" d="M45.6606,14.73c0.0269,1.5991,1.0483,2.2583,2.2314,2.2583c0.8467,0,1.3579-0.1484,1.8013-0.3359
		l0.2017,0.8467c-0.4165,0.1885-1.1289,0.4033-2.1641,0.4033c-2.0034,0-3.1997-1.3174-3.1997-3.2798
		c0-1.9629,1.1562-3.5088,3.0518-3.5088c2.124,0,2.6885,1.8687,2.6885,3.0649c0,0.2422-0.0269,0.4302-0.0405,0.5513H45.6606z
		 M49.1289,13.8828c0.0132-0.7524-0.3091-1.9224-1.6401-1.9224c-1.1963,0-1.7207,1.1025-1.8149,1.9224
		C45.6739,13.8828,49.1289,13.8828,49.1289,13.8828z"/>
	<path class="st2" d="M55.3428,17.7676l-0.0942-0.8193h-0.04c-0.3628,0.5107-1.062,0.9678-1.9897,0.9678
		c-1.3174,0-1.9893-0.9277-1.9893-1.8691c0-1.5723,1.3979-2.4326,3.9116-2.4194v-0.1343c0-0.5376-0.1479-1.5054-1.4785-1.5054
		c-0.605,0-1.2368,0.188-1.6938,0.4839l-0.269-0.7798c0.5376-0.3496,1.3174-0.5781,2.1377-0.5781
		c1.9893,0,2.4731,1.3579,2.4731,2.6616v2.4326c0,0.5654,0.0269,1.1162,0.1079,1.5596h-1.0758V17.7676z M55.168,14.4478
		c-1.2905-0.0269-2.7559,0.2017-2.7559,1.4653c0,0.7656,0.5112,1.1289,1.1157,1.1289c0.8472,0,1.3848-0.5381,1.5732-1.0889
		c0.04-0.1211,0.0669-0.2559,0.0669-0.377v-1.1283H55.168z"/>
	<path class="st2" d="M58.2231,13.2915c0-0.7661-0.0137-1.4248-0.0537-2.0298h1.0352l0.04,1.2769h0.0537
		c0.2959-0.8735,1.0083-1.4248,1.8013-1.4248c0.1348,0,0.2285,0.0137,0.3364,0.0405V12.27
		c-0.1211-0.0269-0.2422-0.0405-0.4033-0.0405c-0.8335,0-1.4253,0.6318-1.5864,1.519c-0.0269,0.1616-0.0537,0.3496-0.0537,0.5513
		v3.4678h-1.1694L58.2231,13.2915L58.2231,13.2915z"/>
	<path class="st2" d="M67.1245,17.5254c-0.3091,0.1621-0.9946,0.377-1.8687,0.377c-1.9624,0-3.2397-1.3311-3.2397-3.3203
		c0-2.0029,1.3711-3.4546,3.4951-3.4546c0.6992,0,1.3174,0.1743,1.6401,0.3359l-0.2686,0.9141
		c-0.2827-0.1611-0.7261-0.3091-1.3716-0.3091c-1.4922,0-2.2988,1.1021-2.2988,2.46c0,1.5049,0.9683,2.4326,2.2588,2.4326
		c0.6719,0,1.1157-0.1748,1.4517-0.3223L67.1245,17.5254z"/>
	<path class="st2" d="M68.5122,8.2236h1.1831v4.0596h0.0269c0.188-0.3359,0.4839-0.6318,0.8467-0.8335
		c0.3496-0.2017,0.7661-0.3359,1.2095-0.3359c0.874,0,2.2725,0.5376,2.2725,2.7827v3.8711h-1.1836v-3.7368
		c0-1.0483-0.3896-1.9355-1.5054-1.9355c-0.7661,0-1.3711,0.5376-1.5859,1.1831c-0.0674,0.1611-0.0806,0.3359-0.0806,0.5645v3.9248
		h-1.1831V8.2236H68.5122z"/>
</g>
</svg>
