<?xml version="1.0" encoding="utf-8"?>
<!-- Generator: Adobe Illustrator 25.3.1, SVG Export Plug-In . SVG Version: 6.00 Build 0)  -->
<svg version="1.1" id="search-small" xmlns="http://www.w3.org/2000/svg" xmlns:xlink="http://www.w3.org/1999/xlink" x="0px"
	 y="0px" viewBox="0 0 28 28" style="enable-background:new 0 0 28 28;" width="28" height="28" xml:space="preserve">
<style type="text/css">
	.st0{fill:#6F8190;}
</style>
<path class="st0" d="M22.8377,20.6666l-3.4835-3.4835c-0.1802-0.1802-0.3604-0.2402-0.6006-0.2402h-0.5405
	c0.9009-1.2613,1.5015-2.7627,1.5015-4.5645c0-4.024-3.3033-7.2672-7.2672-7.2672S5,8.2943,5,12.3183s3.3033,7.2672,7.2672,7.2672
	c1.6817,0,3.3033-0.5405,4.5645-1.5015v0.5405c0,0.2402,0.0601,0.4204,0.2402,0.6006l3.4835,3.4835
	c0.2402,0.2402,0.9009,0.2402,1.1411,0l0.961-0.961C23.0779,21.5074,23.0779,20.9669,22.8377,20.6666z M12.2672,16.9429
	c-2.5225,0-4.5645-2.042-4.5645-4.5645s2.042-4.5645,4.5645-4.5645s4.5645,2.042,4.5645,4.5645
	C16.7717,14.8408,14.7897,16.9429,12.2672,16.9429z"/>
</svg>
