<?xml version="1.0" encoding="utf-8"?>
<!-- Generator: Adobe Illustrator 25.2.3, SVG Export Plug-In . SVG Version: 6.00 Build 0)  -->
<svg version="1.1" id="entity_viewer" xmlns="http://www.w3.org/2000/svg" xmlns:xlink="http://www.w3.org/1999/xlink" x="0px"
	 y="0px" viewBox="0 0 132.6 36" style="enable-background:new 0 0 132.6 36;" xml:space="preserve">
<style type="text/css">
	.st0{fill:#6F8190;}
	.st1{fill:#FFFFFF;}
	.st2{enable-background:new    ;}
	.st3{fill:#1B2C39;}
</style>
<rect class="st0" width="36" height="36"/>
<g>
	<path class="st1" d="M12.6,22.5c-0.9-1.1-1.5-2.4-1.6-3.9H8.6c0.1,2.1,1,4,2.3,5.6L12.6,22.5z"/>
	<path class="st1" d="M18.6,8.6V11c3.3,0.3,6,3,6.3,6.3h2.4C27,12.7,23.3,8.9,18.6,8.6z"/>
	<path class="st1" d="M18,25c-1.6,0-3.2-0.6-4.5-1.6L11.8,25c1.7,1.5,3.9,2.4,6.2,2.4c5,0,9.1-3.9,9.4-8.8h-2.4
		C24.6,22.2,21.6,25,18,25z"/>
	<path class="st1" d="M17.4,11V5c-4.2,0.2-8,2.4-10.3,6l5.3,3C13.4,12.3,15.3,11.2,17.4,11z"/>
	<path class="st1" d="M18,28.6c-2.6,0-5.1-1-7-2.7l-1.7,1.7c2.4,2.2,5.5,3.4,8.8,3.4c7,0,12.7-5.5,13-12.4h-2.4
		C28.2,24.2,23.6,28.6,18,28.6z"/>
	<path class="st1" d="M6.4,12c-0.8,1.6-1.3,3.5-1.5,5.4h6c0.1-0.8,0.3-1.6,0.6-2.4L6.4,12z"/>
</g>
<g class="st2">
	<path class="st3" d="M52.6,12.3v1h-4.5v3.1h3.6v1h-3.6v3.2h4.5v1h-5.7v-9.3H52.6z"/>
	<path class="st3" d="M54.3,21.6V15H55c0.2,0,0.3,0.1,0.3,0.2l0.1,0.7c0.3-0.3,0.6-0.6,1-0.8c0.4-0.2,0.8-0.3,1.2-0.3
		c0.4,0,0.7,0.1,1,0.2c0.3,0.1,0.5,0.3,0.7,0.5s0.3,0.5,0.4,0.8c0.1,0.3,0.1,0.6,0.1,1v4.2h-1.2v-4.2c0-0.5-0.1-0.9-0.3-1.2
		s-0.6-0.4-1-0.4c-0.3,0-0.7,0.1-1,0.2s-0.6,0.4-0.8,0.7v4.8H54.3z"/>
	<path class="st3" d="M63.5,21.7c-0.5,0-0.9-0.1-1.2-0.4C62,21,61.9,20.6,61.9,20v-4h-0.8c-0.1,0-0.1,0-0.2-0.1s-0.1-0.1-0.1-0.2
		v-0.5l1.1-0.1l0.3-2c0-0.1,0-0.1,0.1-0.2c0,0,0.1-0.1,0.2-0.1H63v2.3h1.9V16H63v4c0,0.3,0.1,0.5,0.2,0.6c0.1,0.1,0.3,0.2,0.5,0.2
		c0.1,0,0.2,0,0.3,0s0.2-0.1,0.2-0.1s0.1-0.1,0.2-0.1c0,0,0.1,0,0.1,0c0.1,0,0.1,0,0.2,0.1l0.3,0.6c-0.2,0.2-0.4,0.3-0.7,0.4
		C64.1,21.7,63.8,21.7,63.5,21.7z"/>
	<path class="st3" d="M67.9,13c0,0.1,0,0.2-0.1,0.3s-0.1,0.2-0.2,0.3s-0.2,0.1-0.3,0.2s-0.2,0.1-0.3,0.1s-0.2,0-0.3-0.1
		c-0.1,0-0.2-0.1-0.3-0.2c-0.1-0.1-0.1-0.2-0.2-0.3c0-0.1-0.1-0.2-0.1-0.3s0-0.2,0.1-0.3c0-0.1,0.1-0.2,0.2-0.3
		c0.1-0.1,0.2-0.1,0.3-0.2c0.1,0,0.2-0.1,0.3-0.1s0.2,0,0.3,0.1c0.1,0,0.2,0.1,0.3,0.2c0.1,0.1,0.1,0.2,0.2,0.3
		C67.9,12.8,67.9,12.9,67.9,13z M67.6,15v6.6h-1.2V15H67.6z"/>
	<path class="st3" d="M71.7,21.7c-0.5,0-0.9-0.1-1.2-0.4c-0.3-0.3-0.4-0.7-0.4-1.3v-4h-0.8c-0.1,0-0.1,0-0.2-0.1S69,15.8,69,15.8
		v-0.5l1.1-0.1l0.3-2c0-0.1,0-0.1,0.1-0.2c0,0,0.1-0.1,0.2-0.1h0.6v2.3h1.9V16h-1.9v4c0,0.3,0.1,0.5,0.2,0.6
		c0.1,0.1,0.3,0.2,0.5,0.2c0.1,0,0.2,0,0.3,0s0.2-0.1,0.2-0.1s0.1-0.1,0.2-0.1c0,0,0.1,0,0.1,0c0.1,0,0.1,0,0.2,0.1l0.3,0.6
		c-0.2,0.2-0.4,0.3-0.7,0.4C72.3,21.7,72,21.7,71.7,21.7z"/>
	<path class="st3" d="M76.5,23.6c0,0.1-0.1,0.2-0.1,0.2s-0.1,0.1-0.3,0.1h-0.9l1.2-2.6L73.7,15h1c0.1,0,0.2,0,0.2,0.1
		c0.1,0,0.1,0.1,0.1,0.2l1.8,4.1c0,0.1,0.1,0.2,0.1,0.3c0,0.1,0.1,0.2,0.1,0.3c0-0.1,0.1-0.2,0.1-0.3c0-0.1,0.1-0.2,0.1-0.3l1.7-4.1
		c0-0.1,0.1-0.1,0.1-0.2c0.1,0,0.1-0.1,0.2-0.1h0.9L76.5,23.6z"/>
	<path class="st3" d="M82.9,15h0.9c0.1,0,0.2,0,0.2,0.1s0.1,0.1,0.1,0.2l1.7,4.2c0.1,0.2,0.1,0.3,0.1,0.5c0,0.2,0.1,0.3,0.1,0.5
		c0-0.2,0.1-0.3,0.1-0.5c0-0.2,0.1-0.3,0.2-0.5l1.7-4.2c0-0.1,0.1-0.1,0.1-0.2c0.1,0,0.1-0.1,0.2-0.1h0.9l-2.7,6.6h-1L82.9,15z"/>
	<path class="st3" d="M91.9,13c0,0.1,0,0.2-0.1,0.3c0,0.1-0.1,0.2-0.2,0.3c-0.1,0.1-0.2,0.1-0.3,0.2s-0.2,0.1-0.3,0.1
		c-0.1,0-0.2,0-0.3-0.1s-0.2-0.1-0.3-0.2c-0.1-0.1-0.1-0.2-0.2-0.3c0-0.1-0.1-0.2-0.1-0.3s0-0.2,0.1-0.3c0-0.1,0.1-0.2,0.2-0.3
		c0.1-0.1,0.2-0.1,0.3-0.2c0.1,0,0.2-0.1,0.3-0.1c0.1,0,0.2,0,0.3,0.1c0.1,0,0.2,0.1,0.3,0.2c0.1,0.1,0.1,0.2,0.2,0.3
		C91.9,12.8,91.9,12.9,91.9,13z M91.6,15v6.6h-1.2V15H91.6z"/>
	<path class="st3" d="M96.3,14.9c0.4,0,0.8,0.1,1.1,0.2c0.3,0.1,0.6,0.3,0.9,0.6c0.2,0.2,0.4,0.6,0.6,0.9s0.2,0.8,0.2,1.3
		c0,0.2,0,0.3-0.1,0.4s-0.1,0.1-0.2,0.1h-4.4c0,0.4,0.1,0.8,0.2,1.1c0.1,0.3,0.2,0.6,0.4,0.8c0.2,0.2,0.4,0.4,0.6,0.5
		s0.5,0.2,0.8,0.2c0.3,0,0.5,0,0.8-0.1s0.4-0.1,0.5-0.2s0.3-0.2,0.4-0.2c0.1-0.1,0.2-0.1,0.3-0.1c0.1,0,0.2,0,0.2,0.1l0.3,0.4
		c-0.1,0.2-0.3,0.3-0.5,0.5c-0.2,0.1-0.4,0.2-0.6,0.3c-0.2,0.1-0.5,0.1-0.7,0.2c-0.2,0-0.5,0.1-0.7,0.1c-0.5,0-0.9-0.1-1.3-0.2
		c-0.4-0.2-0.7-0.4-1-0.7c-0.3-0.3-0.5-0.7-0.7-1.1c-0.2-0.4-0.2-0.9-0.2-1.5c0-0.5,0.1-0.9,0.2-1.3c0.1-0.4,0.3-0.7,0.6-1
		c0.3-0.3,0.6-0.5,1-0.7C95.4,15,95.8,14.9,96.3,14.9z M96.3,15.8c-0.6,0-1,0.2-1.3,0.5c-0.3,0.3-0.5,0.8-0.6,1.3H98
		c0-0.3,0-0.5-0.1-0.7c-0.1-0.2-0.2-0.4-0.3-0.6c-0.1-0.2-0.3-0.3-0.5-0.4S96.6,15.8,96.3,15.8z"/>
	<path class="st3" d="M99.6,15h0.9c0.1,0,0.2,0,0.2,0.1s0.1,0.1,0.1,0.2l1.3,4.2c0,0.2,0.1,0.3,0.1,0.5s0.1,0.3,0.1,0.4
		c0-0.1,0.1-0.3,0.1-0.4c0-0.1,0.1-0.3,0.1-0.5l1.4-4.3c0-0.1,0.1-0.1,0.1-0.2c0.1,0,0.1-0.1,0.2-0.1h0.5c0.1,0,0.2,0,0.2,0.1
		c0.1,0,0.1,0.1,0.1,0.2l1.4,4.3c0,0.2,0.1,0.3,0.1,0.4c0,0.1,0.1,0.3,0.1,0.4c0-0.1,0-0.3,0.1-0.4c0-0.2,0.1-0.3,0.1-0.4l1.3-4.2
		c0-0.1,0.1-0.1,0.1-0.2c0.1,0,0.1-0.1,0.2-0.1h0.9l-2.1,6.6h-0.9c-0.1,0-0.2-0.1-0.2-0.2l-1.5-4.5c0-0.1-0.1-0.2-0.1-0.3
		c0-0.1,0-0.2-0.1-0.3c0,0.1,0,0.2-0.1,0.3c0,0.1,0,0.2-0.1,0.3l-1.5,4.5c0,0.1-0.1,0.2-0.3,0.2h-0.9L99.6,15z"/>
	<path class="st3" d="M113.1,14.9c0.4,0,0.8,0.1,1.1,0.2c0.3,0.1,0.6,0.3,0.9,0.6c0.2,0.2,0.4,0.6,0.6,0.9c0.1,0.4,0.2,0.8,0.2,1.3
		c0,0.2,0,0.3-0.1,0.4s-0.1,0.1-0.2,0.1h-4.4c0,0.4,0.1,0.8,0.2,1.1c0.1,0.3,0.2,0.6,0.4,0.8c0.2,0.2,0.4,0.4,0.7,0.5
		c0.3,0.1,0.5,0.2,0.8,0.2c0.3,0,0.5,0,0.8-0.1c0.2-0.1,0.4-0.1,0.5-0.2c0.2-0.1,0.3-0.2,0.4-0.2s0.2-0.1,0.3-0.1
		c0.1,0,0.2,0,0.2,0.1l0.3,0.4c-0.1,0.2-0.3,0.3-0.5,0.5c-0.2,0.1-0.4,0.2-0.6,0.3c-0.2,0.1-0.5,0.1-0.7,0.2c-0.2,0-0.5,0.1-0.7,0.1
		c-0.5,0-0.9-0.1-1.3-0.2c-0.4-0.2-0.7-0.4-1-0.7s-0.5-0.7-0.7-1.1c-0.2-0.4-0.2-0.9-0.2-1.5c0-0.5,0.1-0.9,0.2-1.3
		c0.1-0.4,0.3-0.7,0.6-1c0.3-0.3,0.6-0.5,1-0.7C112.2,15,112.6,14.9,113.1,14.9z M113.1,15.8c-0.6,0-1,0.2-1.3,0.5
		c-0.3,0.3-0.5,0.8-0.6,1.3h3.6c0-0.3,0-0.5-0.1-0.7c-0.1-0.2-0.2-0.4-0.3-0.6c-0.1-0.2-0.3-0.3-0.5-0.4
		C113.6,15.8,113.3,15.8,113.1,15.8z"/>
	<path class="st3" d="M117.3,21.6V15h0.7c0.1,0,0.2,0,0.3,0.1c0,0,0.1,0.1,0.1,0.2l0.1,1c0.2-0.5,0.5-0.8,0.8-1.1
		c0.3-0.3,0.7-0.4,1.2-0.4c0.2,0,0.3,0,0.5,0.1s0.3,0.1,0.4,0.2l-0.1,0.9c0,0.1-0.1,0.2-0.2,0.2c-0.1,0-0.2,0-0.3-0.1
		s-0.3-0.1-0.5-0.1c-0.4,0-0.7,0.1-1,0.4c-0.3,0.2-0.5,0.6-0.7,1v4.2H117.3z"/>
</g>
</svg>
