<?xml version="1.0" encoding="utf-8"?>
<!-- Generator: Adobe Illustrator 25.2.3, SVG Export Plug-In . SVG Version: 6.00 Build 0)  -->
<svg version="1.1" id="genome_browser" xmlns="http://www.w3.org/2000/svg" xmlns:xlink="http://www.w3.org/1999/xlink" x="0px"
	 y="0px" viewBox="0 0 157 36" style="enable-background:new 0 0 157 36;" xml:space="preserve">
<style type="text/css">
	.st0{fill:#6F8190;}
	.st1{fill:#FFFFFF;}
	.st2{enable-background:new    ;}
	.st3{fill:#1B2C39;}
</style>
<rect class="st0" width="36" height="36"/>
<path class="st1" d="M8.5,28.3c0,0.4,0.2,0.7,0.7,0.7h1.4c0.4,0,0.7-0.2,0.7-0.6c0-0.2,0.1-0.4,0.1-0.7h13.3
	c0.1,0.4,0.1,0.6,0.1,0.7c0,0.4,0.4,0.6,0.7,0.6h1.4c0.4,0,0.7-0.4,0.7-0.7c-0.2-1.7-1.2-5.5-5.1-9c-0.7,0.6-1.7,0.9-2.5,1.6
	c0.2,0.2,0.4,0.4,0.7,0.7h-5.3c0.8-0.7,2.1-1.6,3.4-2.2c7.2-3.7,8.6-9.4,8.8-11.6c0-0.4-0.2-0.7-0.7-0.7h-1.4
	c-0.4,0-0.7,0.2-0.7,0.6c0,0.1,0,0.4-0.1,0.7H11.3c-0.1-0.4-0.1-0.7-0.2-0.8c0-0.3-0.4-0.6-0.7-0.6H9.1C8.5,6.9,8.5,7.2,8.5,7.6
	c0.2,2,1.4,6.7,6.7,10.4C9.7,21.6,8.5,26.4,8.5,28.3z M17.9,16.3c-1.2-0.6-2.1-1.2-2.6-2h5.3C19.8,15.1,18.9,15.7,17.9,16.3
	L17.9,16.3z M23.3,11c-0.2,0.4-0.6,0.8-0.8,1.4h-9.3c-0.3-0.5-0.7-0.8-0.7-1.4C12.5,11,23.3,11,23.3,11z M12.4,24.7
	c0.2-0.4,0.6-0.8,0.8-1.4h9.2c0.4,0.4,0.7,0.8,0.8,1.4H12.4z"/>
<g class="st2">
	<path class="st3" d="M51.1,21.8c0.3,0,0.5,0,0.7,0c0.2,0,0.4-0.1,0.6-0.1c0.2,0,0.4-0.1,0.5-0.2c0.2-0.1,0.3-0.1,0.5-0.2v-2.1h-1.4
		c-0.1,0-0.1,0-0.2-0.1S51.7,19,51.7,19v-0.7h2.9v3.6c-0.2,0.2-0.5,0.3-0.7,0.4c-0.3,0.1-0.5,0.2-0.8,0.3c-0.3,0.1-0.6,0.1-0.9,0.2
		c-0.3,0-0.7,0.1-1.1,0.1c-0.7,0-1.3-0.1-1.9-0.3c-0.6-0.2-1-0.6-1.5-1s-0.7-0.9-1-1.5s-0.3-1.2-0.3-1.9c0-0.7,0.1-1.4,0.3-1.9
		c0.2-0.6,0.5-1.1,1-1.5c0.4-0.4,0.9-0.7,1.5-1c0.6-0.2,1.2-0.3,2-0.3c0.4,0,0.7,0,1,0.1c0.3,0.1,0.6,0.1,0.9,0.2
		c0.3,0.1,0.5,0.2,0.8,0.4c0.2,0.1,0.4,0.3,0.6,0.5l-0.4,0.6c-0.1,0.1-0.2,0.2-0.3,0.2c-0.1,0-0.1,0-0.2-0.1
		c-0.1-0.1-0.2-0.1-0.4-0.2s-0.3-0.2-0.5-0.2s-0.4-0.1-0.7-0.2c-0.3-0.1-0.6-0.1-0.9-0.1c-0.5,0-1,0.1-1.4,0.3
		c-0.4,0.2-0.8,0.4-1.1,0.7c-0.3,0.3-0.5,0.7-0.7,1.2c-0.2,0.5-0.2,1-0.2,1.5c0,0.6,0.1,1.1,0.2,1.6c0.2,0.5,0.4,0.9,0.7,1.2
		c0.3,0.3,0.7,0.6,1.1,0.7C50.1,21.7,50.6,21.8,51.1,21.8z"/>
	<path class="st3" d="M58.9,16c0.4,0,0.8,0.1,1.1,0.2s0.6,0.3,0.9,0.6c0.2,0.2,0.4,0.6,0.6,0.9c0.1,0.4,0.2,0.8,0.2,1.3
		c0,0.2,0,0.3-0.1,0.4s-0.1,0.1-0.2,0.1h-4.4c0,0.4,0.1,0.8,0.2,1.1s0.2,0.6,0.4,0.8c0.2,0.2,0.4,0.4,0.6,0.5
		c0.3,0.1,0.5,0.2,0.8,0.2c0.3,0,0.5,0,0.8-0.1c0.2-0.1,0.4-0.1,0.5-0.2c0.2-0.1,0.3-0.2,0.4-0.2c0.1-0.1,0.2-0.1,0.3-0.1
		c0.1,0,0.2,0,0.2,0.1l0.3,0.4c-0.1,0.2-0.3,0.3-0.5,0.5c-0.2,0.1-0.4,0.2-0.6,0.3c-0.2,0.1-0.5,0.1-0.7,0.2s-0.5,0.1-0.7,0.1
		c-0.5,0-0.9-0.1-1.3-0.2c-0.4-0.2-0.7-0.4-1-0.7c-0.3-0.3-0.5-0.7-0.7-1.1c-0.2-0.4-0.2-0.9-0.2-1.5c0-0.5,0.1-0.9,0.2-1.3
		c0.1-0.4,0.3-0.7,0.6-1c0.3-0.3,0.6-0.5,1-0.7S58.4,16,58.9,16z M58.9,16.9c-0.6,0-1,0.2-1.3,0.5c-0.3,0.3-0.5,0.8-0.6,1.3h3.6
		c0-0.3,0-0.5-0.1-0.7c-0.1-0.2-0.2-0.4-0.3-0.6c-0.1-0.2-0.3-0.3-0.5-0.4C59.4,16.9,59.2,16.9,58.9,16.9z"/>
	<path class="st3" d="M63.1,22.7v-6.6h0.7c0.2,0,0.3,0.1,0.3,0.2l0.1,0.7c0.3-0.3,0.6-0.6,1-0.8c0.4-0.2,0.8-0.3,1.2-0.3
		c0.4,0,0.7,0.1,1,0.2c0.3,0.1,0.5,0.3,0.7,0.5s0.3,0.5,0.4,0.8c0.1,0.3,0.1,0.6,0.1,1v4.2h-1.2v-4.2c0-0.5-0.1-0.9-0.3-1.2
		S66.5,17,66,17c-0.3,0-0.7,0.1-1,0.2s-0.6,0.4-0.8,0.7v4.8H63.1z"/>
	<path class="st3" d="M73,16c0.5,0,0.9,0.1,1.3,0.2c0.4,0.2,0.7,0.4,1,0.7c0.3,0.3,0.5,0.7,0.6,1.1c0.1,0.4,0.2,0.9,0.2,1.4
		c0,0.5-0.1,1-0.2,1.4c-0.1,0.4-0.4,0.8-0.6,1.1c-0.3,0.3-0.6,0.5-1,0.7c-0.4,0.2-0.8,0.2-1.3,0.2c-0.5,0-0.9-0.1-1.3-0.2
		c-0.4-0.2-0.7-0.4-1-0.7c-0.3-0.3-0.5-0.7-0.6-1.1s-0.2-0.9-0.2-1.4c0-0.5,0.1-1,0.2-1.4s0.4-0.8,0.6-1.1s0.6-0.5,1-0.7
		C72.1,16.1,72.5,16,73,16z M73,21.9c0.7,0,1.1-0.2,1.5-0.7s0.5-1,0.5-1.8c0-0.8-0.2-1.4-0.5-1.8S73.6,17,73,17
		c-0.3,0-0.6,0.1-0.9,0.2s-0.4,0.3-0.6,0.5c-0.2,0.2-0.3,0.5-0.4,0.8s-0.1,0.7-0.1,1s0,0.7,0.1,1s0.2,0.6,0.4,0.8
		c0.2,0.2,0.4,0.4,0.6,0.5S72.6,21.9,73,21.9z"/>
	<path class="st3" d="M77.5,22.7v-6.6h0.7c0.2,0,0.3,0.1,0.3,0.2l0.1,0.7c0.2-0.3,0.5-0.5,0.8-0.7c0.3-0.2,0.7-0.3,1-0.3
		c0.4,0,0.8,0.1,1.1,0.4s0.5,0.6,0.6,1c0.1-0.2,0.2-0.4,0.4-0.6c0.1-0.2,0.3-0.3,0.5-0.4c0.2-0.1,0.4-0.2,0.6-0.2
		c0.2-0.1,0.4-0.1,0.6-0.1c0.3,0,0.7,0.1,0.9,0.2c0.3,0.1,0.5,0.3,0.7,0.5c0.2,0.2,0.3,0.5,0.4,0.8c0.1,0.3,0.1,0.7,0.1,1.1v4.2
		h-1.2v-4.2c0-0.5-0.1-0.9-0.3-1.2c-0.2-0.3-0.6-0.4-1-0.4c-0.2,0-0.4,0-0.5,0.1c-0.2,0.1-0.3,0.2-0.5,0.3c-0.1,0.1-0.2,0.3-0.3,0.5
		c-0.1,0.2-0.1,0.4-0.1,0.7v4.2h-1.2v-4.2c0-0.5-0.1-0.9-0.3-1.2c-0.2-0.3-0.5-0.4-0.9-0.4c-0.3,0-0.6,0.1-0.8,0.2
		c-0.2,0.2-0.5,0.4-0.7,0.6v4.9H77.5z"/>
	<path class="st3" d="M90.8,16c0.4,0,0.8,0.1,1.1,0.2c0.3,0.1,0.6,0.3,0.9,0.6c0.2,0.2,0.4,0.6,0.6,0.9c0.1,0.4,0.2,0.8,0.2,1.3
		c0,0.2,0,0.3-0.1,0.4s-0.1,0.1-0.2,0.1h-4.4c0,0.4,0.1,0.8,0.2,1.1c0.1,0.3,0.2,0.6,0.4,0.8c0.2,0.2,0.4,0.4,0.7,0.5
		c0.3,0.1,0.5,0.2,0.8,0.2c0.3,0,0.5,0,0.8-0.1c0.2-0.1,0.4-0.1,0.5-0.2c0.2-0.1,0.3-0.2,0.4-0.2s0.2-0.1,0.3-0.1
		c0.1,0,0.2,0,0.2,0.1l0.3,0.4c-0.1,0.2-0.3,0.3-0.5,0.5c-0.2,0.1-0.4,0.2-0.6,0.3c-0.2,0.1-0.5,0.1-0.7,0.2c-0.2,0-0.5,0.1-0.7,0.1
		c-0.5,0-0.9-0.1-1.3-0.2c-0.4-0.2-0.7-0.4-1-0.7s-0.5-0.7-0.7-1.1c-0.2-0.4-0.2-0.9-0.2-1.5c0-0.5,0.1-0.9,0.2-1.3
		c0.1-0.4,0.3-0.7,0.6-1c0.3-0.3,0.6-0.5,1-0.7C89.9,16.1,90.3,16,90.8,16z M90.8,16.9c-0.6,0-1,0.2-1.3,0.5
		c-0.3,0.3-0.5,0.8-0.6,1.3h3.6c0-0.3,0-0.5-0.1-0.7c-0.1-0.2-0.2-0.4-0.3-0.6c-0.1-0.2-0.3-0.3-0.5-0.4
		C91.3,16.9,91.1,16.9,90.8,16.9z"/>
	<path class="st3" d="M97.6,22.7v-9.6h1.2v3.9c0.3-0.3,0.6-0.6,0.9-0.8c0.4-0.2,0.8-0.3,1.2-0.3c0.4,0,0.7,0.1,1,0.2
		c0.3,0.1,0.6,0.4,0.8,0.6c0.2,0.3,0.4,0.6,0.5,1.1c0.1,0.4,0.2,0.9,0.2,1.4c0,0.5-0.1,0.9-0.2,1.4c-0.1,0.4-0.3,0.8-0.6,1.1
		s-0.5,0.5-0.9,0.7c-0.4,0.2-0.8,0.3-1.2,0.3c-0.4,0-0.8-0.1-1.1-0.2c-0.3-0.2-0.6-0.4-0.8-0.7l-0.1,0.6c0,0.2-0.1,0.2-0.3,0.2H97.6
		z M100.5,17c-0.4,0-0.7,0.1-1,0.3c-0.3,0.2-0.5,0.4-0.8,0.7v3.2c0.2,0.3,0.4,0.5,0.7,0.6c0.3,0.1,0.5,0.2,0.8,0.2
		c0.6,0,1.1-0.2,1.4-0.7c0.3-0.4,0.5-1.1,0.5-1.9c0-0.4,0-0.8-0.1-1.1c-0.1-0.3-0.2-0.6-0.3-0.8c-0.1-0.2-0.3-0.3-0.5-0.4
		S100.8,17,100.5,17z"/>
	<path class="st3" d="M104.8,22.7v-6.6h0.7c0.1,0,0.2,0,0.3,0.1s0.1,0.1,0.1,0.2l0.1,1c0.2-0.5,0.5-0.8,0.8-1.1
		c0.3-0.3,0.7-0.4,1.2-0.4c0.2,0,0.3,0,0.5,0.1s0.3,0.1,0.4,0.2l-0.1,0.9c0,0.1-0.1,0.2-0.2,0.2c-0.1,0-0.2,0-0.3-0.1
		c-0.1,0-0.3-0.1-0.5-0.1c-0.4,0-0.7,0.1-1,0.4c-0.3,0.2-0.5,0.6-0.7,1v4.2H104.8z"/>
	<path class="st3" d="M112.7,16c0.5,0,0.9,0.1,1.3,0.2c0.4,0.2,0.7,0.4,1,0.7s0.5,0.7,0.6,1.1s0.2,0.9,0.2,1.4c0,0.5-0.1,1-0.2,1.4
		s-0.4,0.8-0.6,1.1c-0.3,0.3-0.6,0.5-1,0.7c-0.4,0.2-0.8,0.2-1.3,0.2s-0.9-0.1-1.3-0.2c-0.4-0.2-0.7-0.4-1-0.7
		c-0.3-0.3-0.5-0.7-0.6-1.1s-0.2-0.9-0.2-1.4c0-0.5,0.1-1,0.2-1.4s0.4-0.8,0.6-1.1c0.3-0.3,0.6-0.5,1-0.7
		C111.8,16.1,112.2,16,112.7,16z M112.7,21.9c0.7,0,1.1-0.2,1.5-0.7c0.3-0.4,0.5-1,0.5-1.8c0-0.8-0.2-1.4-0.5-1.8
		c-0.3-0.4-0.8-0.7-1.5-0.7c-0.3,0-0.6,0.1-0.9,0.2c-0.2,0.1-0.4,0.3-0.6,0.5c-0.2,0.2-0.3,0.5-0.4,0.8s-0.1,0.7-0.1,1s0,0.7,0.1,1
		s0.2,0.6,0.4,0.8s0.4,0.4,0.6,0.5C112.1,21.9,112.4,21.9,112.7,21.9z"/>
	<path class="st3" d="M116.4,16.2h0.9c0.1,0,0.2,0,0.2,0.1s0.1,0.1,0.1,0.2l1.3,4.2c0,0.2,0.1,0.3,0.1,0.5s0.1,0.3,0.1,0.4
		c0-0.1,0.1-0.3,0.1-0.4s0.1-0.3,0.1-0.5l1.4-4.3c0-0.1,0.1-0.1,0.1-0.2c0.1,0,0.1-0.1,0.2-0.1h0.5c0.1,0,0.2,0,0.2,0.1
		c0.1,0,0.1,0.1,0.1,0.2l1.4,4.3c0,0.2,0.1,0.3,0.1,0.4c0,0.1,0.1,0.3,0.1,0.4c0-0.1,0-0.3,0.1-0.4c0-0.2,0.1-0.3,0.1-0.4l1.3-4.2
		c0-0.1,0.1-0.1,0.1-0.2c0.1,0,0.1-0.1,0.2-0.1h0.9l-2.1,6.6h-0.9c-0.1,0-0.2-0.1-0.2-0.2l-1.5-4.5c0-0.1-0.1-0.2-0.1-0.3
		c0-0.1,0-0.2-0.1-0.3c0,0.1,0,0.2-0.1,0.3c0,0.1,0,0.2-0.1,0.3l-1.5,4.5c0,0.1-0.1,0.2-0.3,0.2h-0.9L116.4,16.2z"/>
	<path class="st3" d="M131,17.2c-0.1,0.1-0.1,0.1-0.2,0.1c-0.1,0-0.1,0-0.2-0.1s-0.2-0.1-0.3-0.2S130,17,129.8,17
		c-0.2,0-0.4-0.1-0.6-0.1c-0.2,0-0.4,0-0.5,0.1c-0.2,0-0.3,0.1-0.4,0.2c-0.1,0.1-0.2,0.2-0.3,0.3s-0.1,0.2-0.1,0.4
		c0,0.2,0,0.3,0.1,0.4c0.1,0.1,0.2,0.2,0.4,0.3s0.3,0.2,0.5,0.2c0.2,0.1,0.4,0.1,0.6,0.2c0.2,0.1,0.4,0.2,0.6,0.2s0.4,0.2,0.5,0.3
		s0.3,0.3,0.4,0.5s0.1,0.4,0.1,0.7c0,0.3-0.1,0.6-0.2,0.8c-0.1,0.3-0.3,0.5-0.5,0.7c-0.2,0.2-0.5,0.3-0.8,0.4s-0.7,0.2-1.1,0.2
		c-0.5,0-0.9-0.1-1.2-0.2c-0.4-0.1-0.7-0.3-0.9-0.6l0.3-0.4c0-0.1,0.1-0.1,0.1-0.1s0.1,0,0.2,0s0.2,0,0.2,0.1s0.2,0.1,0.3,0.2
		c0.1,0.1,0.3,0.1,0.4,0.2c0.2,0.1,0.4,0.1,0.7,0.1c0.2,0,0.4,0,0.6-0.1s0.3-0.1,0.4-0.2c0.1-0.1,0.2-0.2,0.2-0.3
		c0.1-0.1,0.1-0.3,0.1-0.4c0-0.2,0-0.3-0.1-0.5c-0.1-0.1-0.2-0.2-0.4-0.3c-0.2-0.1-0.3-0.2-0.5-0.2c-0.2-0.1-0.4-0.1-0.6-0.2
		c-0.2-0.1-0.4-0.1-0.6-0.2s-0.4-0.2-0.5-0.3c-0.2-0.1-0.3-0.3-0.4-0.5c-0.1-0.2-0.1-0.4-0.1-0.7c0-0.3,0.1-0.5,0.2-0.7
		c0.1-0.2,0.3-0.4,0.5-0.6s0.4-0.3,0.7-0.4c0.3-0.1,0.6-0.2,1-0.2c0.4,0,0.8,0.1,1.2,0.2c0.3,0.1,0.6,0.3,0.9,0.6L131,17.2z"/>
	<path class="st3" d="M135.5,16c0.4,0,0.8,0.1,1.1,0.2c0.3,0.1,0.6,0.3,0.9,0.6c0.2,0.2,0.4,0.6,0.6,0.9c0.1,0.4,0.2,0.8,0.2,1.3
		c0,0.2,0,0.3-0.1,0.4s-0.1,0.1-0.2,0.1h-4.4c0,0.4,0.1,0.8,0.2,1.1c0.1,0.3,0.2,0.6,0.4,0.8c0.2,0.2,0.4,0.4,0.7,0.5
		c0.3,0.1,0.5,0.2,0.8,0.2c0.3,0,0.5,0,0.8-0.1c0.2-0.1,0.4-0.1,0.5-0.2c0.2-0.1,0.3-0.2,0.4-0.2s0.2-0.1,0.3-0.1
		c0.1,0,0.2,0,0.2,0.1l0.3,0.4c-0.1,0.2-0.3,0.3-0.5,0.5c-0.2,0.1-0.4,0.2-0.6,0.3c-0.2,0.1-0.5,0.1-0.7,0.2c-0.2,0-0.5,0.1-0.7,0.1
		c-0.5,0-0.9-0.1-1.3-0.2c-0.4-0.2-0.7-0.4-1-0.7s-0.5-0.7-0.7-1.1c-0.2-0.4-0.2-0.9-0.2-1.5c0-0.5,0.1-0.9,0.2-1.3
		c0.1-0.4,0.3-0.7,0.6-1c0.3-0.3,0.6-0.5,1-0.7C134.6,16.1,135,16,135.5,16z M135.5,16.9c-0.6,0-1,0.2-1.3,0.5
		c-0.3,0.3-0.5,0.8-0.6,1.3h3.6c0-0.3,0-0.5-0.1-0.7c-0.1-0.2-0.2-0.4-0.3-0.6c-0.1-0.2-0.3-0.3-0.5-0.4
		C136,16.9,135.8,16.9,135.5,16.9z"/>
	<path class="st3" d="M139.7,22.7v-6.6h0.7c0.1,0,0.2,0,0.3,0.1c0,0,0.1,0.1,0.1,0.2l0.1,1c0.2-0.5,0.5-0.8,0.8-1.1
		c0.3-0.3,0.7-0.4,1.2-0.4c0.2,0,0.3,0,0.5,0.1s0.3,0.1,0.4,0.2l-0.1,0.9c0,0.1-0.1,0.2-0.2,0.2c-0.1,0-0.2,0-0.3-0.1
		s-0.3-0.1-0.5-0.1c-0.4,0-0.7,0.1-1,0.4c-0.3,0.2-0.5,0.6-0.7,1v4.2H139.7z"/>
</g>
</svg>
