<?xml version="1.0" encoding="utf-8"?>
<!-- Generator: Adobe Illustrator 25.2.3, SVG Export Plug-In . SVG Version: 6.00 Build 0)  -->
<svg version="1.1" id="species_selector" xmlns="http://www.w3.org/2000/svg" xmlns:xlink="http://www.w3.org/1999/xlink" x="0px"
	 y="0px" viewBox="0 0 150.1 36" style="enable-background:new 0 0 150.1 36;" xml:space="preserve">
<style type="text/css">
	.st0{fill:#6F8190;}
	.st1{fill:#FFFFFF;}
	.st2{fill:#1B2C39;}
</style>
<rect class="st0" width="36" height="36"/>
<g>
	<path id="_x3C_Compound_Path_pawprint_x3E_" class="st1" d="M7.7,14.3c-1.5,0-2.8-1.9-2.8-3.3c0-1,0.5-1.9,1.6-1.9
		c1.5,0,2.8,1.9,2.8,3.4C9.3,13.4,8.8,14.3,7.7,14.3z M19.3,18c0,1.3-1.1,1.4-2.2,1.4c-1.4,0-2.4-0.9-3.8-0.9s-2.6,0.9-4.1,0.9
		c-1,0-1.9-0.4-1.9-1.4c0-2.3,3.4-5.8,5.9-5.8S19.3,15.7,19.3,18z M10.9,10.2c-1.8,0-2.7-2-2.7-3.3c0-1.1,0.6-2.3,1.9-2.3
		c1.8,0,2.7,2,2.7,3.3C12.8,8.9,12.2,10.2,10.9,10.2z M13.9,7.8c0-1.4,1-3.3,2.7-3.3c1.3,0,1.9,1.3,1.9,2.3c0,1.4-1,3.3-2.7,3.3
		C14.5,10.2,13.9,8.9,13.9,7.8z M21.9,11.1c0,1.4-1.2,3.3-2.8,3.3c-1.2,0-1.6-1-1.6-1.9c0-1.4,1.2-3.3,2.8-3.3
		C21.4,9.1,21.9,10.2,21.9,11.1z"/>
	<path id="_x3C_Path_twig_x3E_" class="st1" d="M7.4,22.6c2.3,1.4,4.7,2.3,7,2.7c0-0.6,0-1.5,0.4-2.2c0.9-1.3,2.8-1.4,2.8-1.4
		s0.4,1.9-0.4,3.1c-0.2,0.4-0.5,0.5-0.8,0.8c1.3,0.1,2.6,0,3.7-0.2c-0.4-0.8-0.8-2.3-0.4-3.8c0.8-2,3.1-3.1,3.1-3.1s1.5,2.3,0.9,4.3
		c-0.2,0.8-0.8,1.4-1.4,1.9c1.3-0.5,2.3-1.2,3.2-2.2c-0.1-1-0.1-2.8,1-4.2c1.5-1.9,4.6-1.8,4.6-1.8s0.4,2.7-1.1,4.6
		c-1.1,1.3-2.7,1.8-3.6,1.9c-0.4,0.4-1,0.9-1.5,1.3c0.9-0.2,1.9-0.4,2.7,0.1c2,0.9,2.8,3.5,2.8,3.5s-2.3,1.2-4.3,0.4
		c-1.6-0.6-2.6-2.3-2.8-2.9c-1.1,0.5-2.3,0.9-3.5,1.1c0.5,0.2,1.2,0.5,1.6,1c1.3,1.4,0.9,4,0.9,4s-2.3,0-3.6-1.5
		c-1-1.1-1.1-2.6-1.1-3.3c-1.5,0-3.1-0.2-4.7-0.6c-2.2-0.5-4.2-1.4-6.1-2.6l-0.4-0.4l0.5-0.9L7.4,22.6z"/>
</g>
<g>
	<path class="st2" d="M51.7,14.5c0,0.1-0.1,0.1-0.1,0.1c0,0-0.1,0-0.2,0c-0.1,0-0.2,0-0.3-0.1c-0.1-0.1-0.2-0.2-0.4-0.2
		c-0.1-0.1-0.3-0.2-0.5-0.2C50,14.1,49.8,14,49.5,14c-0.3,0-0.5,0-0.7,0.1c-0.2,0.1-0.4,0.2-0.5,0.3c-0.1,0.1-0.3,0.3-0.3,0.5
		c-0.1,0.2-0.1,0.4-0.1,0.6c0,0.3,0.1,0.5,0.2,0.6c0.1,0.2,0.3,0.3,0.5,0.4c0.2,0.1,0.4,0.2,0.7,0.3c0.3,0.1,0.5,0.2,0.8,0.3
		c0.3,0.1,0.6,0.2,0.8,0.3c0.3,0.1,0.5,0.3,0.7,0.5c0.2,0.2,0.4,0.4,0.5,0.7c0.1,0.3,0.2,0.6,0.2,1c0,0.4-0.1,0.8-0.2,1.1
		s-0.3,0.7-0.6,0.9c-0.3,0.3-0.6,0.5-1,0.6c-0.4,0.2-0.8,0.2-1.3,0.2c-0.6,0-1.2-0.1-1.6-0.3c-0.5-0.2-0.9-0.5-1.3-0.9l0.4-0.6
		c0,0,0.1-0.1,0.1-0.1s0.1,0,0.2,0c0.1,0,0.2,0,0.3,0.1c0.1,0.1,0.3,0.2,0.4,0.3c0.2,0.1,0.4,0.2,0.6,0.3c0.2,0.1,0.6,0.1,0.9,0.1
		c0.3,0,0.6,0,0.8-0.1c0.2-0.1,0.4-0.2,0.6-0.3c0.2-0.1,0.3-0.3,0.4-0.5C51,20.2,51,20,51,19.7c0-0.3-0.1-0.5-0.2-0.7
		c-0.1-0.2-0.3-0.3-0.5-0.5c-0.2-0.1-0.4-0.2-0.7-0.3s-0.5-0.2-0.8-0.3c-0.3-0.1-0.6-0.2-0.8-0.3c-0.3-0.1-0.5-0.3-0.7-0.5
		c-0.2-0.2-0.4-0.4-0.5-0.7c-0.1-0.3-0.2-0.6-0.2-1c0-0.3,0.1-0.6,0.2-1s0.3-0.6,0.6-0.8s0.5-0.4,0.9-0.6S49,13,49.4,13
		c0.5,0,1,0.1,1.4,0.2s0.8,0.4,1.1,0.7L51.7,14.5z"/>
	<path class="st2" d="M53.6,24.6v-8.8h0.7c0.2,0,0.3,0.1,0.3,0.2l0.1,0.8c0.3-0.3,0.6-0.6,1-0.8s0.8-0.3,1.3-0.3
		c0.4,0,0.7,0.1,1,0.2c0.3,0.1,0.6,0.4,0.8,0.6c0.2,0.3,0.4,0.6,0.5,1.1c0.1,0.4,0.2,0.9,0.2,1.4c0,0.5-0.1,0.9-0.2,1.4
		s-0.3,0.8-0.6,1.1c-0.2,0.3-0.5,0.5-0.9,0.7c-0.4,0.2-0.8,0.3-1.2,0.3c-0.4,0-0.8-0.1-1-0.2c-0.3-0.1-0.5-0.3-0.8-0.6v2.9H53.6z
		 M56.5,16.6c-0.4,0-0.7,0.1-1,0.3s-0.5,0.4-0.8,0.7v3.2c0.2,0.3,0.4,0.5,0.7,0.6s0.5,0.2,0.8,0.2c0.6,0,1.1-0.2,1.4-0.7
		s0.5-1.1,0.5-1.9c0-0.4,0-0.8-0.1-1.1c-0.1-0.3-0.2-0.6-0.3-0.8c-0.1-0.2-0.3-0.3-0.5-0.4C57,16.7,56.8,16.6,56.5,16.6z"/>
	<path class="st2" d="M63.4,15.7c0.4,0,0.8,0.1,1.1,0.2s0.6,0.3,0.9,0.6c0.2,0.2,0.4,0.6,0.6,0.9c0.1,0.4,0.2,0.8,0.2,1.3
		c0,0.2,0,0.3-0.1,0.4s-0.1,0.1-0.2,0.1h-4.4c0,0.4,0.1,0.8,0.2,1.1s0.2,0.6,0.4,0.8c0.2,0.2,0.4,0.4,0.6,0.5
		c0.3,0.1,0.5,0.2,0.8,0.2c0.3,0,0.5,0,0.8-0.1c0.2-0.1,0.4-0.1,0.5-0.2c0.2-0.1,0.3-0.2,0.4-0.2c0.1-0.1,0.2-0.1,0.3-0.1
		c0.1,0,0.2,0,0.2,0.1l0.3,0.4c-0.1,0.2-0.3,0.3-0.5,0.5s-0.4,0.2-0.6,0.3s-0.5,0.1-0.7,0.2s-0.5,0.1-0.7,0.1
		c-0.5,0-0.9-0.1-1.3-0.2c-0.4-0.2-0.7-0.4-1-0.7c-0.3-0.3-0.5-0.7-0.7-1.1c-0.2-0.4-0.2-0.9-0.2-1.5c0-0.5,0.1-0.9,0.2-1.3
		c0.1-0.4,0.3-0.7,0.6-1c0.3-0.3,0.6-0.5,1-0.7C62.5,15.8,62.9,15.7,63.4,15.7z M63.4,16.6c-0.6,0-1,0.2-1.3,0.5
		c-0.3,0.3-0.5,0.8-0.6,1.3h3.6c0-0.3,0-0.5-0.1-0.7s-0.2-0.4-0.3-0.6s-0.3-0.3-0.5-0.4C63.9,16.6,63.7,16.6,63.4,16.6z"/>
	<path class="st2" d="M72.1,17c0,0-0.1,0.1-0.1,0.1c0,0-0.1,0-0.1,0s-0.1,0-0.2-0.1c-0.1-0.1-0.2-0.1-0.3-0.2s-0.3-0.1-0.4-0.2
		s-0.4-0.1-0.6-0.1c-0.3,0-0.6,0.1-0.9,0.2s-0.5,0.3-0.6,0.5c-0.2,0.2-0.3,0.5-0.4,0.8s-0.1,0.7-0.1,1c0,0.4,0,0.8,0.1,1.1
		c0.1,0.3,0.2,0.6,0.4,0.8s0.4,0.4,0.6,0.5c0.2,0.1,0.5,0.2,0.8,0.2c0.3,0,0.5,0,0.7-0.1c0.2-0.1,0.3-0.1,0.5-0.2
		c0.1-0.1,0.2-0.2,0.3-0.2s0.2-0.1,0.2-0.1c0.1,0,0.2,0,0.2,0.1l0.3,0.4c-0.3,0.4-0.6,0.6-1.1,0.8c-0.4,0.2-0.9,0.2-1.4,0.2
		c-0.4,0-0.8-0.1-1.1-0.2s-0.7-0.4-0.9-0.7c-0.3-0.3-0.5-0.6-0.6-1.1c-0.1-0.4-0.2-0.9-0.2-1.4c0-0.5,0.1-0.9,0.2-1.4
		c0.1-0.4,0.3-0.8,0.6-1.1c0.3-0.3,0.6-0.5,1-0.7s0.8-0.3,1.3-0.3c0.5,0,0.9,0.1,1.2,0.2c0.4,0.1,0.7,0.4,0.9,0.6L72.1,17z"/>
	<path class="st2" d="M75.2,13.7c0,0.1,0,0.2-0.1,0.3c0,0.1-0.1,0.2-0.2,0.3s-0.2,0.1-0.3,0.2s-0.2,0.1-0.3,0.1s-0.2,0-0.3-0.1
		c-0.1,0-0.2-0.1-0.3-0.2c-0.1-0.1-0.1-0.2-0.2-0.3c0-0.1-0.1-0.2-0.1-0.3s0-0.2,0.1-0.3c0-0.1,0.1-0.2,0.2-0.3
		c0.1-0.1,0.2-0.1,0.3-0.2c0.1,0,0.2-0.1,0.3-0.1s0.2,0,0.3,0.1s0.2,0.1,0.3,0.2s0.1,0.2,0.2,0.3C75.2,13.5,75.2,13.6,75.2,13.7z
		 M75,15.8v6.6h-1.2v-6.6H75z"/>
	<path class="st2" d="M79.6,15.7c0.4,0,0.8,0.1,1.1,0.2s0.6,0.3,0.9,0.6c0.2,0.2,0.4,0.6,0.6,0.9c0.1,0.4,0.2,0.8,0.2,1.3
		c0,0.2,0,0.3-0.1,0.4s-0.1,0.1-0.2,0.1h-4.4c0,0.4,0.1,0.8,0.2,1.1s0.2,0.6,0.4,0.8c0.2,0.2,0.4,0.4,0.6,0.5
		c0.3,0.1,0.5,0.2,0.8,0.2c0.3,0,0.5,0,0.8-0.1c0.2-0.1,0.4-0.1,0.5-0.2c0.2-0.1,0.3-0.2,0.4-0.2c0.1-0.1,0.2-0.1,0.3-0.1
		c0.1,0,0.2,0,0.2,0.1l0.3,0.4c-0.1,0.2-0.3,0.3-0.5,0.5s-0.4,0.2-0.6,0.3s-0.5,0.1-0.7,0.2s-0.5,0.1-0.7,0.1
		c-0.5,0-0.9-0.1-1.3-0.2c-0.4-0.2-0.7-0.4-1-0.7c-0.3-0.3-0.5-0.7-0.7-1.1c-0.2-0.4-0.2-0.9-0.2-1.5c0-0.5,0.1-0.9,0.2-1.3
		c0.1-0.4,0.3-0.7,0.6-1c0.3-0.3,0.6-0.5,1-0.7C78.7,15.8,79.1,15.7,79.6,15.7z M79.6,16.6c-0.6,0-1,0.2-1.3,0.5
		c-0.3,0.3-0.5,0.8-0.6,1.3h3.6c0-0.3,0-0.5-0.1-0.7s-0.2-0.4-0.3-0.6s-0.3-0.3-0.5-0.4C80.1,16.6,79.9,16.6,79.6,16.6z"/>
	<path class="st2" d="M87.6,16.9C87.5,17,87.5,17,87.3,17c-0.1,0-0.1,0-0.2-0.1c-0.1,0-0.2-0.1-0.3-0.2c-0.1-0.1-0.3-0.1-0.4-0.2
		c-0.2,0-0.4-0.1-0.6-0.1c-0.2,0-0.4,0-0.5,0.1c-0.2,0-0.3,0.1-0.4,0.2c-0.1,0.1-0.2,0.2-0.3,0.3s-0.1,0.2-0.1,0.4
		c0,0.2,0,0.3,0.1,0.4c0.1,0.1,0.2,0.2,0.4,0.3c0.2,0.1,0.3,0.2,0.5,0.2c0.2,0.1,0.4,0.1,0.6,0.2c0.2,0.1,0.4,0.2,0.6,0.2
		c0.2,0.1,0.4,0.2,0.5,0.3c0.2,0.1,0.3,0.3,0.4,0.5c0.1,0.2,0.1,0.4,0.1,0.7c0,0.3-0.1,0.6-0.2,0.8c-0.1,0.3-0.3,0.5-0.5,0.7
		s-0.5,0.3-0.8,0.4s-0.7,0.2-1.1,0.2c-0.5,0-0.9-0.1-1.2-0.2s-0.7-0.3-0.9-0.6l0.3-0.4c0-0.1,0.1-0.1,0.1-0.1c0,0,0.1,0,0.2,0
		c0.1,0,0.2,0,0.2,0.1c0.1,0.1,0.2,0.1,0.3,0.2c0.1,0.1,0.3,0.1,0.4,0.2c0.2,0.1,0.4,0.1,0.7,0.1c0.2,0,0.4,0,0.6-0.1
		c0.2-0.1,0.3-0.1,0.4-0.2c0.1-0.1,0.2-0.2,0.3-0.3s0.1-0.3,0.1-0.4c0-0.2,0-0.3-0.1-0.5c-0.1-0.1-0.2-0.2-0.4-0.3
		c-0.2-0.1-0.3-0.2-0.5-0.2c-0.2-0.1-0.4-0.1-0.6-0.2c-0.2-0.1-0.4-0.1-0.6-0.2c-0.2-0.1-0.4-0.2-0.5-0.3c-0.2-0.1-0.3-0.3-0.4-0.5
		c-0.1-0.2-0.1-0.4-0.1-0.7c0-0.3,0.1-0.5,0.2-0.7c0.1-0.2,0.3-0.4,0.5-0.6s0.4-0.3,0.7-0.4c0.3-0.1,0.6-0.2,1-0.2
		c0.4,0,0.8,0.1,1.2,0.2c0.3,0.1,0.6,0.3,0.9,0.6L87.6,16.9z"/>
	<path class="st2" d="M95.7,16.9C95.7,17,95.6,17,95.5,17c-0.1,0-0.1,0-0.2-0.1c-0.1,0-0.2-0.1-0.3-0.2c-0.1-0.1-0.3-0.1-0.4-0.2
		c-0.2,0-0.4-0.1-0.6-0.1c-0.2,0-0.4,0-0.5,0.1c-0.2,0-0.3,0.1-0.4,0.2c-0.1,0.1-0.2,0.2-0.3,0.3s-0.1,0.2-0.1,0.4
		c0,0.2,0,0.3,0.1,0.4c0.1,0.1,0.2,0.2,0.4,0.3c0.2,0.1,0.3,0.2,0.5,0.2c0.2,0.1,0.4,0.1,0.6,0.2c0.2,0.1,0.4,0.2,0.6,0.2
		c0.2,0.1,0.4,0.2,0.5,0.3c0.2,0.1,0.3,0.3,0.4,0.5c0.1,0.2,0.1,0.4,0.1,0.7c0,0.3-0.1,0.6-0.2,0.8c-0.1,0.3-0.3,0.5-0.5,0.7
		s-0.5,0.3-0.8,0.4s-0.7,0.2-1.1,0.2c-0.5,0-0.9-0.1-1.2-0.2s-0.7-0.3-0.9-0.6l0.3-0.4c0-0.1,0.1-0.1,0.1-0.1c0,0,0.1,0,0.2,0
		c0.1,0,0.2,0,0.2,0.1c0.1,0.1,0.2,0.1,0.3,0.2c0.1,0.1,0.3,0.1,0.4,0.2c0.2,0.1,0.4,0.1,0.7,0.1c0.2,0,0.4,0,0.6-0.1
		c0.2-0.1,0.3-0.1,0.4-0.2c0.1-0.1,0.2-0.2,0.3-0.3s0.1-0.3,0.1-0.4c0-0.2,0-0.3-0.1-0.5c-0.1-0.1-0.2-0.2-0.4-0.3
		c-0.2-0.1-0.3-0.2-0.5-0.2c-0.2-0.1-0.4-0.1-0.6-0.2c-0.2-0.1-0.4-0.1-0.6-0.2c-0.2-0.1-0.4-0.2-0.5-0.3c-0.2-0.1-0.3-0.3-0.4-0.5
		c-0.1-0.2-0.1-0.4-0.1-0.7c0-0.3,0.1-0.5,0.2-0.7c0.1-0.2,0.3-0.4,0.5-0.6s0.4-0.3,0.7-0.4c0.3-0.1,0.6-0.2,1-0.2
		c0.4,0,0.8,0.1,1.2,0.2c0.3,0.1,0.6,0.3,0.9,0.6L95.7,16.9z"/>
	<path class="st2" d="M100.2,15.7c0.4,0,0.8,0.1,1.1,0.2c0.3,0.1,0.6,0.3,0.9,0.6c0.2,0.2,0.4,0.6,0.6,0.9s0.2,0.8,0.2,1.3
		c0,0.2,0,0.3-0.1,0.4s-0.1,0.1-0.2,0.1h-4.4c0,0.4,0.1,0.8,0.2,1.1c0.1,0.3,0.2,0.6,0.4,0.8s0.4,0.4,0.7,0.5
		c0.2,0.1,0.5,0.2,0.8,0.2c0.3,0,0.5,0,0.8-0.1c0.2-0.1,0.4-0.1,0.5-0.2c0.2-0.1,0.3-0.2,0.4-0.2s0.2-0.1,0.3-0.1
		c0.1,0,0.2,0,0.2,0.1l0.3,0.4c-0.1,0.2-0.3,0.3-0.5,0.5s-0.4,0.2-0.6,0.3c-0.2,0.1-0.5,0.1-0.7,0.2c-0.2,0-0.5,0.1-0.7,0.1
		c-0.5,0-0.9-0.1-1.3-0.2c-0.4-0.2-0.7-0.4-1-0.7c-0.3-0.3-0.5-0.7-0.7-1.1c-0.2-0.4-0.2-0.9-0.2-1.5c0-0.5,0.1-0.9,0.2-1.3
		c0.1-0.4,0.3-0.7,0.6-1c0.3-0.3,0.6-0.5,1-0.7C99.3,15.8,99.7,15.7,100.2,15.7z M100.2,16.6c-0.6,0-1,0.2-1.3,0.5s-0.5,0.8-0.6,1.3
		h3.6c0-0.3,0-0.5-0.1-0.7s-0.2-0.4-0.3-0.6c-0.1-0.2-0.3-0.3-0.5-0.4C100.7,16.6,100.5,16.6,100.2,16.6z"/>
	<path class="st2" d="M105.7,12.8v9.6h-1.2v-9.6H105.7z"/>
	<path class="st2" d="M110.4,15.7c0.4,0,0.8,0.1,1.1,0.2s0.6,0.3,0.9,0.6c0.2,0.2,0.4,0.6,0.6,0.9s0.2,0.8,0.2,1.3
		c0,0.2,0,0.3-0.1,0.4s-0.1,0.1-0.2,0.1h-4.4c0,0.4,0.1,0.8,0.2,1.1c0.1,0.3,0.2,0.6,0.4,0.8s0.4,0.4,0.7,0.5
		c0.2,0.1,0.5,0.2,0.8,0.2c0.3,0,0.5,0,0.8-0.1c0.2-0.1,0.4-0.1,0.5-0.2c0.2-0.1,0.3-0.2,0.4-0.2s0.2-0.1,0.3-0.1
		c0.1,0,0.2,0,0.2,0.1l0.3,0.4c-0.1,0.2-0.3,0.3-0.5,0.5s-0.4,0.2-0.6,0.3c-0.2,0.1-0.5,0.1-0.7,0.2s-0.5,0.1-0.7,0.1
		c-0.5,0-0.9-0.1-1.3-0.2c-0.4-0.2-0.7-0.4-1-0.7c-0.3-0.3-0.5-0.7-0.7-1.1s-0.2-0.9-0.2-1.5c0-0.5,0.1-0.9,0.2-1.3
		c0.1-0.4,0.3-0.7,0.6-1c0.3-0.3,0.6-0.5,1-0.7C109.4,15.8,109.9,15.7,110.4,15.7z M110.4,16.6c-0.6,0-1,0.2-1.3,0.5
		s-0.5,0.8-0.6,1.3h3.6c0-0.3,0-0.5-0.1-0.7s-0.2-0.4-0.3-0.6c-0.1-0.2-0.3-0.3-0.5-0.4C110.9,16.6,110.6,16.6,110.4,16.6z"/>
	<path class="st2" d="M119,17c0,0-0.1,0.1-0.1,0.1c0,0-0.1,0-0.2,0s-0.1,0-0.2-0.1s-0.2-0.1-0.3-0.2s-0.3-0.1-0.4-0.2
		c-0.2-0.1-0.4-0.1-0.6-0.1c-0.3,0-0.6,0.1-0.9,0.2c-0.2,0.1-0.5,0.3-0.6,0.5c-0.2,0.2-0.3,0.5-0.4,0.8c-0.1,0.3-0.1,0.7-0.1,1
		c0,0.4,0,0.8,0.1,1.1c0.1,0.3,0.2,0.6,0.4,0.8c0.2,0.2,0.4,0.4,0.6,0.5s0.5,0.2,0.8,0.2c0.3,0,0.5,0,0.7-0.1
		c0.2-0.1,0.3-0.1,0.5-0.2c0.1-0.1,0.2-0.2,0.3-0.2c0.1-0.1,0.2-0.1,0.2-0.1c0.1,0,0.2,0,0.2,0.1l0.3,0.4c-0.3,0.4-0.6,0.6-1.1,0.8
		c-0.4,0.2-0.9,0.2-1.4,0.2c-0.4,0-0.8-0.1-1.1-0.2s-0.7-0.4-0.9-0.7c-0.3-0.3-0.5-0.6-0.6-1.1c-0.1-0.4-0.2-0.9-0.2-1.4
		c0-0.5,0.1-0.9,0.2-1.4s0.3-0.8,0.6-1.1c0.3-0.3,0.6-0.5,1-0.7c0.4-0.2,0.8-0.3,1.3-0.3c0.5,0,0.9,0.1,1.2,0.2s0.7,0.4,0.9,0.6
		L119,17z"/>
	<path class="st2" d="M122.6,22.5c-0.5,0-0.9-0.1-1.2-0.4c-0.3-0.3-0.4-0.7-0.4-1.3v-4h-0.8c-0.1,0-0.1,0-0.2-0.1
		c0,0-0.1-0.1-0.1-0.2v-0.5l1.1-0.1l0.3-2c0-0.1,0-0.1,0.1-0.2c0,0,0.1-0.1,0.2-0.1h0.6v2.3h1.9v0.8h-1.9v4c0,0.3,0.1,0.5,0.2,0.6
		c0.1,0.1,0.3,0.2,0.5,0.2c0.1,0,0.2,0,0.3,0c0.1,0,0.2-0.1,0.2-0.1s0.1-0.1,0.2-0.1s0.1,0,0.1,0c0.1,0,0.1,0,0.2,0.1l0.3,0.6
		c-0.2,0.2-0.4,0.3-0.7,0.4S122.9,22.5,122.6,22.5z"/>
	<path class="st2" d="M128.1,15.7c0.5,0,0.9,0.1,1.3,0.2c0.4,0.2,0.7,0.4,1,0.7c0.3,0.3,0.5,0.7,0.6,1.1c0.1,0.4,0.2,0.9,0.2,1.4
		c0,0.5-0.1,1-0.2,1.4c-0.1,0.4-0.4,0.8-0.6,1.1c-0.3,0.3-0.6,0.5-1,0.7c-0.4,0.2-0.8,0.2-1.3,0.2c-0.5,0-0.9-0.1-1.3-0.2
		c-0.4-0.2-0.7-0.4-1-0.7c-0.3-0.3-0.5-0.6-0.6-1.1s-0.2-0.9-0.2-1.4c0-0.5,0.1-1,0.2-1.4c0.1-0.4,0.4-0.8,0.6-1.1
		c0.3-0.3,0.6-0.5,1-0.7C127.2,15.8,127.7,15.7,128.1,15.7z M128.1,21.6c0.6,0,1.1-0.2,1.5-0.7s0.5-1,0.5-1.8c0-0.8-0.2-1.4-0.5-1.8
		c-0.3-0.4-0.8-0.7-1.5-0.7c-0.3,0-0.6,0.1-0.9,0.2c-0.2,0.1-0.4,0.3-0.6,0.5s-0.3,0.5-0.4,0.8c-0.1,0.3-0.1,0.7-0.1,1
		c0,0.4,0,0.7,0.1,1c0.1,0.3,0.2,0.6,0.4,0.8s0.4,0.4,0.6,0.5C127.5,21.5,127.8,21.6,128.1,21.6z"/>
	<path class="st2" d="M132.7,22.4v-6.6h0.7c0.1,0,0.2,0,0.3,0.1c0,0,0.1,0.1,0.1,0.2l0.1,1c0.2-0.5,0.5-0.8,0.8-1.1
		c0.3-0.3,0.7-0.4,1.2-0.4c0.2,0,0.3,0,0.5,0.1s0.3,0.1,0.4,0.2l-0.2,0.9c0,0.1-0.1,0.2-0.2,0.2c-0.1,0-0.2,0-0.3-0.1
		c-0.1,0-0.3-0.1-0.5-0.1c-0.4,0-0.7,0.1-1,0.4c-0.3,0.2-0.5,0.6-0.7,1v4.2H132.7z"/>
</g>
</svg>
